G75*
G70*
%OFA0B0*%
%FSLAX24Y24*%
%IPPOS*%
%LPD*%
%AMOC8*
5,1,8,0,0,1.08239X$1,22.5*
%
%ADD10C,0.0120*%
%ADD11C,0.0050*%
%ADD12C,0.0080*%
%ADD13C,0.0010*%
%ADD14C,0.0060*%
%ADD15C,0.0020*%
%ADD16R,0.0250X0.0300*%
%ADD17R,0.1100X0.0500*%
%ADD18C,0.0070*%
%ADD19C,0.0030*%
%ADD20C,0.0100*%
D10*
X008713Y001600D02*
X009463Y001600D01*
X009465Y001639D01*
X009471Y001678D01*
X009480Y001716D01*
X009493Y001753D01*
X009510Y001789D01*
X009530Y001822D01*
X009554Y001854D01*
X009580Y001883D01*
X009609Y001909D01*
X009641Y001933D01*
X009674Y001953D01*
X009710Y001970D01*
X009747Y001983D01*
X009785Y001992D01*
X009824Y001998D01*
X009863Y002000D01*
X009902Y001998D01*
X009941Y001992D01*
X009979Y001983D01*
X010016Y001970D01*
X010052Y001953D01*
X010085Y001933D01*
X010117Y001909D01*
X010146Y001883D01*
X010172Y001854D01*
X010196Y001822D01*
X010216Y001789D01*
X010233Y001753D01*
X010246Y001716D01*
X010255Y001678D01*
X010261Y001639D01*
X010263Y001600D01*
X011013Y001600D01*
X011013Y009600D01*
X008713Y009600D01*
X008713Y001600D01*
D11*
X009638Y002675D02*
X009788Y002825D01*
X009638Y002975D01*
X010088Y002975D01*
X010088Y003135D02*
X009788Y003135D01*
X009638Y003286D01*
X009788Y003436D01*
X010088Y003436D01*
X010088Y003596D02*
X009638Y003896D01*
X009713Y004056D02*
X009638Y004131D01*
X009638Y004281D01*
X009713Y004356D01*
X009788Y004356D01*
X010088Y004056D01*
X010088Y004356D01*
X010013Y004517D02*
X010088Y004592D01*
X010088Y004742D01*
X010013Y004817D01*
X009938Y004817D01*
X009863Y004742D01*
X009863Y004667D01*
X009863Y004742D02*
X009788Y004817D01*
X009713Y004817D01*
X009638Y004742D01*
X009638Y004592D01*
X009713Y004517D01*
X009713Y004977D02*
X009638Y005052D01*
X009638Y005202D01*
X009713Y005277D01*
X009788Y005277D01*
X010088Y004977D01*
X010088Y005277D01*
X010088Y003896D02*
X009638Y003596D01*
X009863Y003436D02*
X009863Y003135D01*
X010088Y002675D02*
X009638Y002675D01*
X013838Y005625D02*
X013913Y005625D01*
X014063Y005775D01*
X014288Y005775D01*
X014063Y005775D02*
X013913Y005925D01*
X013838Y005925D01*
X013988Y006085D02*
X013838Y006236D01*
X014288Y006236D01*
X014288Y006386D02*
X014288Y006085D01*
X022449Y004725D02*
X022449Y004455D01*
X022449Y004545D02*
X022584Y004545D01*
X022629Y004590D01*
X022629Y004680D01*
X022584Y004725D01*
X022449Y004725D01*
X022539Y004545D02*
X022629Y004455D01*
X022744Y004500D02*
X022789Y004455D01*
X022879Y004455D01*
X022924Y004500D01*
X022924Y004590D01*
X022879Y004635D01*
X022834Y004635D01*
X022744Y004590D01*
X022744Y004725D01*
X022924Y004725D01*
X023404Y004635D02*
X023494Y004725D01*
X023494Y004455D01*
X023404Y004455D02*
X023584Y004455D01*
X023699Y004500D02*
X023879Y004680D01*
X023879Y004500D01*
X023834Y004455D01*
X023744Y004455D01*
X023699Y004500D01*
X023699Y004680D01*
X023744Y004725D01*
X023834Y004725D01*
X023879Y004680D01*
X023994Y004725D02*
X023994Y004455D01*
X023994Y004545D02*
X024174Y004725D01*
X024039Y004590D02*
X024174Y004455D01*
X024174Y008455D02*
X024039Y008590D01*
X023994Y008545D02*
X024174Y008725D01*
X023994Y008725D02*
X023994Y008455D01*
X023879Y008500D02*
X023834Y008455D01*
X023744Y008455D01*
X023699Y008500D01*
X023879Y008680D01*
X023879Y008500D01*
X023699Y008500D02*
X023699Y008680D01*
X023744Y008725D01*
X023834Y008725D01*
X023879Y008680D01*
X023584Y008455D02*
X023404Y008455D01*
X023494Y008455D02*
X023494Y008725D01*
X023404Y008635D01*
X022924Y008545D02*
X022879Y008590D01*
X022744Y008590D01*
X022744Y008500D01*
X022789Y008455D01*
X022879Y008455D01*
X022924Y008500D01*
X022924Y008545D01*
X022834Y008680D02*
X022744Y008590D01*
X022629Y008590D02*
X022584Y008545D01*
X022449Y008545D01*
X022449Y008455D02*
X022449Y008725D01*
X022584Y008725D01*
X022629Y008680D01*
X022629Y008590D01*
X022539Y008545D02*
X022629Y008455D01*
X022834Y008680D02*
X022924Y008725D01*
X022924Y012455D02*
X022744Y012455D01*
X022924Y012635D01*
X022924Y012680D01*
X022879Y012725D01*
X022789Y012725D01*
X022744Y012680D01*
X022629Y012680D02*
X022584Y012725D01*
X022449Y012725D01*
X022449Y012455D01*
X022449Y012545D02*
X022584Y012545D01*
X022629Y012590D01*
X022629Y012680D01*
X022539Y012545D02*
X022629Y012455D01*
X023488Y012475D02*
X023668Y012475D01*
X023578Y012475D02*
X023578Y012745D01*
X023488Y012655D01*
X023783Y012700D02*
X023783Y012520D01*
X023963Y012700D01*
X023963Y012520D01*
X023918Y012475D01*
X023828Y012475D01*
X023783Y012520D01*
X023783Y012700D02*
X023828Y012745D01*
X023918Y012745D01*
X023963Y012700D01*
X024078Y012745D02*
X024078Y012475D01*
X024078Y012565D02*
X024258Y012745D01*
X024123Y012610D02*
X024258Y012475D01*
X023213Y014975D02*
X023123Y014975D01*
X023078Y015020D01*
X023258Y015200D01*
X023258Y015020D01*
X023213Y014975D01*
X023078Y015020D02*
X023078Y015200D01*
X023123Y015245D01*
X023213Y015245D01*
X023258Y015200D01*
X022963Y015200D02*
X022963Y015155D01*
X022918Y015110D01*
X022963Y015065D01*
X022963Y015020D01*
X022918Y014975D01*
X022828Y014975D01*
X022783Y015020D01*
X022668Y015020D02*
X022623Y014975D01*
X022533Y014975D01*
X022488Y015020D01*
X022578Y015110D02*
X022623Y015110D01*
X022668Y015065D01*
X022668Y015020D01*
X022623Y015110D02*
X022668Y015155D01*
X022668Y015200D01*
X022623Y015245D01*
X022533Y015245D01*
X022488Y015200D01*
X022783Y015200D02*
X022828Y015245D01*
X022918Y015245D01*
X022963Y015200D01*
X022918Y015110D02*
X022873Y015110D01*
X021813Y015110D02*
X021633Y015110D01*
X021768Y015245D01*
X021768Y014975D01*
X021518Y014975D02*
X021428Y015065D01*
X021473Y015065D02*
X021338Y015065D01*
X021338Y014975D02*
X021338Y015245D01*
X021473Y015245D01*
X021518Y015200D01*
X021518Y015110D01*
X021473Y015065D01*
X021518Y016975D02*
X021428Y017065D01*
X021473Y017065D02*
X021338Y017065D01*
X021338Y016975D02*
X021338Y017245D01*
X021473Y017245D01*
X021518Y017200D01*
X021518Y017110D01*
X021473Y017065D01*
X021633Y017020D02*
X021678Y016975D01*
X021768Y016975D01*
X021813Y017020D01*
X021813Y017065D01*
X021768Y017110D01*
X021723Y017110D01*
X021768Y017110D02*
X021813Y017155D01*
X021813Y017200D01*
X021768Y017245D01*
X021678Y017245D01*
X021633Y017200D01*
X022488Y017200D02*
X022533Y017245D01*
X022623Y017245D01*
X022668Y017200D01*
X022668Y017155D01*
X022623Y017110D01*
X022668Y017065D01*
X022668Y017020D01*
X022623Y016975D01*
X022533Y016975D01*
X022488Y017020D01*
X022578Y017110D02*
X022623Y017110D01*
X022783Y017020D02*
X022828Y016975D01*
X022918Y016975D01*
X022963Y017020D01*
X022963Y017065D01*
X022918Y017110D01*
X022873Y017110D01*
X022918Y017110D02*
X022963Y017155D01*
X022963Y017200D01*
X022918Y017245D01*
X022828Y017245D01*
X022783Y017200D01*
X023078Y017200D02*
X023078Y017020D01*
X023258Y017200D01*
X023258Y017020D01*
X023213Y016975D01*
X023123Y016975D01*
X023078Y017020D01*
X023078Y017200D02*
X023123Y017245D01*
X023213Y017245D01*
X023258Y017200D01*
X023213Y018975D02*
X023123Y018975D01*
X023078Y019020D01*
X023258Y019200D01*
X023258Y019020D01*
X023213Y018975D01*
X023078Y019020D02*
X023078Y019200D01*
X023123Y019245D01*
X023213Y019245D01*
X023258Y019200D01*
X022963Y019200D02*
X022963Y019155D01*
X022918Y019110D01*
X022963Y019065D01*
X022963Y019020D01*
X022918Y018975D01*
X022828Y018975D01*
X022783Y019020D01*
X022668Y019020D02*
X022623Y018975D01*
X022533Y018975D01*
X022488Y019020D01*
X022578Y019110D02*
X022623Y019110D01*
X022668Y019065D01*
X022668Y019020D01*
X022623Y019110D02*
X022668Y019155D01*
X022668Y019200D01*
X022623Y019245D01*
X022533Y019245D01*
X022488Y019200D01*
X022783Y019200D02*
X022828Y019245D01*
X022918Y019245D01*
X022963Y019200D01*
X022918Y019110D02*
X022873Y019110D01*
X021813Y018975D02*
X021633Y018975D01*
X021723Y018975D02*
X021723Y019245D01*
X021633Y019155D01*
X021518Y019110D02*
X021473Y019065D01*
X021338Y019065D01*
X021338Y018975D02*
X021338Y019245D01*
X021473Y019245D01*
X021518Y019200D01*
X021518Y019110D01*
X021428Y019065D02*
X021518Y018975D01*
D12*
X007466Y000537D02*
X005363Y000537D01*
X007466Y000537D02*
X007466Y012663D01*
X005363Y012663D01*
X009113Y014600D02*
X009613Y014600D01*
X008583Y014100D02*
X008585Y014171D01*
X008591Y014242D01*
X008601Y014313D01*
X008615Y014382D01*
X008632Y014451D01*
X008654Y014519D01*
X008679Y014586D01*
X008708Y014651D01*
X008740Y014714D01*
X008776Y014776D01*
X008815Y014835D01*
X008858Y014892D01*
X008903Y014947D01*
X008952Y014999D01*
X009003Y015048D01*
X009057Y015094D01*
X009114Y015138D01*
X009172Y015178D01*
X009233Y015214D01*
X009296Y015248D01*
X009361Y015277D01*
X009427Y015303D01*
X009495Y015326D01*
X009563Y015344D01*
X009633Y015359D01*
X009703Y015370D01*
X009774Y015377D01*
X009845Y015380D01*
X009916Y015379D01*
X009987Y015374D01*
X010058Y015365D01*
X010128Y015352D01*
X010197Y015336D01*
X010265Y015315D01*
X010332Y015291D01*
X010398Y015263D01*
X010461Y015231D01*
X010523Y015196D01*
X010583Y015158D01*
X010641Y015116D01*
X010696Y015072D01*
X010749Y015024D01*
X010799Y014973D01*
X010846Y014920D01*
X010890Y014864D01*
X010931Y014806D01*
X010969Y014745D01*
X011003Y014683D01*
X011033Y014618D01*
X011060Y014553D01*
X011084Y014485D01*
X011103Y014417D01*
X011119Y014348D01*
X011131Y014277D01*
X011139Y014207D01*
X011143Y014136D01*
X011143Y014064D01*
X011139Y013993D01*
X011131Y013923D01*
X011119Y013852D01*
X011103Y013783D01*
X011084Y013715D01*
X011060Y013647D01*
X011033Y013582D01*
X011003Y013517D01*
X010969Y013455D01*
X010931Y013394D01*
X010890Y013336D01*
X010846Y013280D01*
X010799Y013227D01*
X010749Y013176D01*
X010696Y013128D01*
X010641Y013084D01*
X010583Y013042D01*
X010523Y013004D01*
X010461Y012969D01*
X010398Y012937D01*
X010332Y012909D01*
X010265Y012885D01*
X010197Y012864D01*
X010128Y012848D01*
X010058Y012835D01*
X009987Y012826D01*
X009916Y012821D01*
X009845Y012820D01*
X009774Y012823D01*
X009703Y012830D01*
X009633Y012841D01*
X009563Y012856D01*
X009495Y012874D01*
X009427Y012897D01*
X009361Y012923D01*
X009296Y012952D01*
X009233Y012986D01*
X009172Y013022D01*
X009114Y013062D01*
X009057Y013106D01*
X009003Y013152D01*
X008952Y013201D01*
X008903Y013253D01*
X008858Y013308D01*
X008815Y013365D01*
X008776Y013424D01*
X008740Y013486D01*
X008708Y013549D01*
X008679Y013614D01*
X008654Y013681D01*
X008632Y013749D01*
X008615Y013818D01*
X008601Y013887D01*
X008591Y013958D01*
X008585Y014029D01*
X008583Y014100D01*
X008257Y015328D02*
X007981Y015328D01*
X008257Y015328D02*
X008257Y016155D01*
X009763Y016100D02*
X009763Y019100D01*
X010963Y019100D01*
X010963Y016100D01*
X009763Y016100D01*
X008257Y018045D02*
X008257Y018872D01*
X004044Y018872D01*
X004044Y015328D01*
X006131Y015328D01*
X013613Y014600D02*
X014113Y014600D01*
X013083Y014100D02*
X013085Y014171D01*
X013091Y014242D01*
X013101Y014313D01*
X013115Y014382D01*
X013132Y014451D01*
X013154Y014519D01*
X013179Y014586D01*
X013208Y014651D01*
X013240Y014714D01*
X013276Y014776D01*
X013315Y014835D01*
X013358Y014892D01*
X013403Y014947D01*
X013452Y014999D01*
X013503Y015048D01*
X013557Y015094D01*
X013614Y015138D01*
X013672Y015178D01*
X013733Y015214D01*
X013796Y015248D01*
X013861Y015277D01*
X013927Y015303D01*
X013995Y015326D01*
X014063Y015344D01*
X014133Y015359D01*
X014203Y015370D01*
X014274Y015377D01*
X014345Y015380D01*
X014416Y015379D01*
X014487Y015374D01*
X014558Y015365D01*
X014628Y015352D01*
X014697Y015336D01*
X014765Y015315D01*
X014832Y015291D01*
X014898Y015263D01*
X014961Y015231D01*
X015023Y015196D01*
X015083Y015158D01*
X015141Y015116D01*
X015196Y015072D01*
X015249Y015024D01*
X015299Y014973D01*
X015346Y014920D01*
X015390Y014864D01*
X015431Y014806D01*
X015469Y014745D01*
X015503Y014683D01*
X015533Y014618D01*
X015560Y014553D01*
X015584Y014485D01*
X015603Y014417D01*
X015619Y014348D01*
X015631Y014277D01*
X015639Y014207D01*
X015643Y014136D01*
X015643Y014064D01*
X015639Y013993D01*
X015631Y013923D01*
X015619Y013852D01*
X015603Y013783D01*
X015584Y013715D01*
X015560Y013647D01*
X015533Y013582D01*
X015503Y013517D01*
X015469Y013455D01*
X015431Y013394D01*
X015390Y013336D01*
X015346Y013280D01*
X015299Y013227D01*
X015249Y013176D01*
X015196Y013128D01*
X015141Y013084D01*
X015083Y013042D01*
X015023Y013004D01*
X014961Y012969D01*
X014898Y012937D01*
X014832Y012909D01*
X014765Y012885D01*
X014697Y012864D01*
X014628Y012848D01*
X014558Y012835D01*
X014487Y012826D01*
X014416Y012821D01*
X014345Y012820D01*
X014274Y012823D01*
X014203Y012830D01*
X014133Y012841D01*
X014063Y012856D01*
X013995Y012874D01*
X013927Y012897D01*
X013861Y012923D01*
X013796Y012952D01*
X013733Y012986D01*
X013672Y013022D01*
X013614Y013062D01*
X013557Y013106D01*
X013503Y013152D01*
X013452Y013201D01*
X013403Y013253D01*
X013358Y013308D01*
X013315Y013365D01*
X013276Y013424D01*
X013240Y013486D01*
X013208Y013549D01*
X013179Y013614D01*
X013154Y013681D01*
X013132Y013749D01*
X013115Y013818D01*
X013101Y013887D01*
X013091Y013958D01*
X013085Y014029D01*
X013083Y014100D01*
X017163Y014500D02*
X017163Y014600D01*
X017863Y014600D01*
X017865Y014556D01*
X017871Y014513D01*
X017880Y014471D01*
X017893Y014429D01*
X017910Y014389D01*
X017930Y014350D01*
X017953Y014313D01*
X017980Y014279D01*
X018009Y014246D01*
X018042Y014217D01*
X018076Y014190D01*
X018113Y014167D01*
X018152Y014147D01*
X018192Y014130D01*
X018234Y014117D01*
X018276Y014108D01*
X018319Y014102D01*
X018363Y014100D01*
X018407Y014102D01*
X018450Y014108D01*
X018492Y014117D01*
X018534Y014130D01*
X018574Y014147D01*
X018613Y014167D01*
X018650Y014190D01*
X018684Y014217D01*
X018717Y014246D01*
X018746Y014279D01*
X018773Y014313D01*
X018796Y014350D01*
X018816Y014389D01*
X018833Y014429D01*
X018846Y014471D01*
X018855Y014513D01*
X018861Y014556D01*
X018863Y014600D01*
X019563Y014600D01*
X019563Y014500D01*
X021123Y014628D02*
X023603Y014628D01*
X023603Y015572D01*
X021123Y015572D01*
X021123Y014628D01*
X022123Y013072D02*
X024603Y013072D01*
X024603Y012128D01*
X022123Y012128D01*
X022123Y013072D01*
X022513Y011800D02*
X024213Y011800D01*
X024563Y011000D02*
X024563Y010195D01*
X022663Y010600D02*
X022665Y010652D01*
X022671Y010704D01*
X022681Y010756D01*
X022694Y010806D01*
X022711Y010856D01*
X022732Y010904D01*
X022757Y010950D01*
X022785Y010994D01*
X022816Y011036D01*
X022850Y011076D01*
X022887Y011113D01*
X022927Y011147D01*
X022969Y011178D01*
X023013Y011206D01*
X023059Y011231D01*
X023107Y011252D01*
X023157Y011269D01*
X023207Y011282D01*
X023259Y011292D01*
X023311Y011298D01*
X023363Y011300D01*
X023415Y011298D01*
X023467Y011292D01*
X023519Y011282D01*
X023569Y011269D01*
X023619Y011252D01*
X023667Y011231D01*
X023713Y011206D01*
X023757Y011178D01*
X023799Y011147D01*
X023839Y011113D01*
X023876Y011076D01*
X023910Y011036D01*
X023941Y010994D01*
X023969Y010950D01*
X023994Y010904D01*
X024015Y010856D01*
X024032Y010806D01*
X024045Y010756D01*
X024055Y010704D01*
X024061Y010652D01*
X024063Y010600D01*
X024061Y010548D01*
X024055Y010496D01*
X024045Y010444D01*
X024032Y010394D01*
X024015Y010344D01*
X023994Y010296D01*
X023969Y010250D01*
X023941Y010206D01*
X023910Y010164D01*
X023876Y010124D01*
X023839Y010087D01*
X023799Y010053D01*
X023757Y010022D01*
X023713Y009994D01*
X023667Y009969D01*
X023619Y009948D01*
X023569Y009931D01*
X023519Y009918D01*
X023467Y009908D01*
X023415Y009902D01*
X023363Y009900D01*
X023311Y009902D01*
X023259Y009908D01*
X023207Y009918D01*
X023157Y009931D01*
X023107Y009948D01*
X023059Y009969D01*
X023013Y009994D01*
X022969Y010022D01*
X022927Y010053D01*
X022887Y010087D01*
X022850Y010124D01*
X022816Y010164D01*
X022785Y010206D01*
X022757Y010250D01*
X022732Y010296D01*
X022711Y010344D01*
X022694Y010394D01*
X022681Y010444D01*
X022671Y010496D01*
X022665Y010548D01*
X022663Y010600D01*
X022163Y010207D02*
X022163Y011000D01*
X022513Y009400D02*
X024213Y009400D01*
X024603Y009072D02*
X022123Y009072D01*
X022123Y008128D01*
X024603Y008128D01*
X024603Y009072D01*
X024213Y007800D02*
X022513Y007800D01*
X022163Y007000D02*
X022163Y006207D01*
X022513Y005400D02*
X024213Y005400D01*
X024603Y005072D02*
X022123Y005072D01*
X022123Y004128D01*
X024603Y004128D01*
X024603Y005072D01*
X024563Y006195D02*
X024563Y007000D01*
X022663Y006600D02*
X022665Y006652D01*
X022671Y006704D01*
X022681Y006756D01*
X022694Y006806D01*
X022711Y006856D01*
X022732Y006904D01*
X022757Y006950D01*
X022785Y006994D01*
X022816Y007036D01*
X022850Y007076D01*
X022887Y007113D01*
X022927Y007147D01*
X022969Y007178D01*
X023013Y007206D01*
X023059Y007231D01*
X023107Y007252D01*
X023157Y007269D01*
X023207Y007282D01*
X023259Y007292D01*
X023311Y007298D01*
X023363Y007300D01*
X023415Y007298D01*
X023467Y007292D01*
X023519Y007282D01*
X023569Y007269D01*
X023619Y007252D01*
X023667Y007231D01*
X023713Y007206D01*
X023757Y007178D01*
X023799Y007147D01*
X023839Y007113D01*
X023876Y007076D01*
X023910Y007036D01*
X023941Y006994D01*
X023969Y006950D01*
X023994Y006904D01*
X024015Y006856D01*
X024032Y006806D01*
X024045Y006756D01*
X024055Y006704D01*
X024061Y006652D01*
X024063Y006600D01*
X024061Y006548D01*
X024055Y006496D01*
X024045Y006444D01*
X024032Y006394D01*
X024015Y006344D01*
X023994Y006296D01*
X023969Y006250D01*
X023941Y006206D01*
X023910Y006164D01*
X023876Y006124D01*
X023839Y006087D01*
X023799Y006053D01*
X023757Y006022D01*
X023713Y005994D01*
X023667Y005969D01*
X023619Y005948D01*
X023569Y005931D01*
X023519Y005918D01*
X023467Y005908D01*
X023415Y005902D01*
X023363Y005900D01*
X023311Y005902D01*
X023259Y005908D01*
X023207Y005918D01*
X023157Y005931D01*
X023107Y005948D01*
X023059Y005969D01*
X023013Y005994D01*
X022969Y006022D01*
X022927Y006053D01*
X022887Y006087D01*
X022850Y006124D01*
X022816Y006164D01*
X022785Y006206D01*
X022757Y006250D01*
X022732Y006296D01*
X022711Y006344D01*
X022694Y006394D01*
X022681Y006444D01*
X022671Y006496D01*
X022665Y006548D01*
X022663Y006600D01*
X022513Y003800D02*
X024213Y003800D01*
X024563Y003000D02*
X024563Y002195D01*
X022663Y002600D02*
X022665Y002652D01*
X022671Y002704D01*
X022681Y002756D01*
X022694Y002806D01*
X022711Y002856D01*
X022732Y002904D01*
X022757Y002950D01*
X022785Y002994D01*
X022816Y003036D01*
X022850Y003076D01*
X022887Y003113D01*
X022927Y003147D01*
X022969Y003178D01*
X023013Y003206D01*
X023059Y003231D01*
X023107Y003252D01*
X023157Y003269D01*
X023207Y003282D01*
X023259Y003292D01*
X023311Y003298D01*
X023363Y003300D01*
X023415Y003298D01*
X023467Y003292D01*
X023519Y003282D01*
X023569Y003269D01*
X023619Y003252D01*
X023667Y003231D01*
X023713Y003206D01*
X023757Y003178D01*
X023799Y003147D01*
X023839Y003113D01*
X023876Y003076D01*
X023910Y003036D01*
X023941Y002994D01*
X023969Y002950D01*
X023994Y002904D01*
X024015Y002856D01*
X024032Y002806D01*
X024045Y002756D01*
X024055Y002704D01*
X024061Y002652D01*
X024063Y002600D01*
X024061Y002548D01*
X024055Y002496D01*
X024045Y002444D01*
X024032Y002394D01*
X024015Y002344D01*
X023994Y002296D01*
X023969Y002250D01*
X023941Y002206D01*
X023910Y002164D01*
X023876Y002124D01*
X023839Y002087D01*
X023799Y002053D01*
X023757Y002022D01*
X023713Y001994D01*
X023667Y001969D01*
X023619Y001948D01*
X023569Y001931D01*
X023519Y001918D01*
X023467Y001908D01*
X023415Y001902D01*
X023363Y001900D01*
X023311Y001902D01*
X023259Y001908D01*
X023207Y001918D01*
X023157Y001931D01*
X023107Y001948D01*
X023059Y001969D01*
X023013Y001994D01*
X022969Y002022D01*
X022927Y002053D01*
X022887Y002087D01*
X022850Y002124D01*
X022816Y002164D01*
X022785Y002206D01*
X022757Y002250D01*
X022732Y002296D01*
X022711Y002344D01*
X022694Y002394D01*
X022681Y002444D01*
X022671Y002496D01*
X022665Y002548D01*
X022663Y002600D01*
X022163Y002207D02*
X022163Y003000D01*
X022513Y001400D02*
X024213Y001400D01*
X019563Y000700D02*
X019563Y000600D01*
X017163Y000600D01*
X017163Y000700D01*
X014363Y001850D02*
X014363Y002350D01*
X014363Y002850D02*
X014363Y003350D01*
X012613Y003100D02*
X012113Y003100D01*
X013463Y004750D02*
X013463Y007450D01*
X013465Y007509D01*
X013471Y007567D01*
X013480Y007626D01*
X013494Y007683D01*
X013511Y007739D01*
X013532Y007794D01*
X013556Y007848D01*
X013584Y007900D01*
X013615Y007950D01*
X013649Y007998D01*
X013686Y008043D01*
X013727Y008086D01*
X013770Y008127D01*
X013815Y008164D01*
X013863Y008198D01*
X013913Y008229D01*
X013965Y008257D01*
X014019Y008281D01*
X014074Y008302D01*
X014130Y008319D01*
X014187Y008333D01*
X014246Y008342D01*
X014304Y008348D01*
X014363Y008350D01*
X014422Y008348D01*
X014480Y008342D01*
X014539Y008333D01*
X014596Y008319D01*
X014652Y008302D01*
X014707Y008281D01*
X014761Y008257D01*
X014813Y008229D01*
X014863Y008198D01*
X014911Y008164D01*
X014956Y008127D01*
X014999Y008086D01*
X015040Y008043D01*
X015077Y007998D01*
X015111Y007950D01*
X015142Y007900D01*
X015170Y007848D01*
X015194Y007794D01*
X015215Y007739D01*
X015232Y007683D01*
X015246Y007626D01*
X015255Y007567D01*
X015261Y007509D01*
X015263Y007450D01*
X015263Y004750D01*
X015261Y004691D01*
X015255Y004633D01*
X015246Y004574D01*
X015232Y004517D01*
X015215Y004461D01*
X015194Y004406D01*
X015170Y004352D01*
X015142Y004300D01*
X015111Y004250D01*
X015077Y004202D01*
X015040Y004157D01*
X014999Y004114D01*
X014956Y004073D01*
X014911Y004036D01*
X014863Y004002D01*
X014813Y003971D01*
X014761Y003943D01*
X014707Y003919D01*
X014652Y003898D01*
X014596Y003881D01*
X014539Y003867D01*
X014480Y003858D01*
X014422Y003852D01*
X014363Y003850D01*
X014304Y003852D01*
X014246Y003858D01*
X014187Y003867D01*
X014130Y003881D01*
X014074Y003898D01*
X014019Y003919D01*
X013965Y003943D01*
X013913Y003971D01*
X013863Y004002D01*
X013815Y004036D01*
X013770Y004073D01*
X013727Y004114D01*
X013686Y004157D01*
X013649Y004202D01*
X013615Y004250D01*
X013584Y004300D01*
X013556Y004352D01*
X013532Y004406D01*
X013511Y004461D01*
X013494Y004517D01*
X013480Y004574D01*
X013471Y004633D01*
X013465Y004691D01*
X013463Y004750D01*
X012613Y005600D02*
X012113Y005600D01*
X012113Y008100D02*
X012613Y008100D01*
X014363Y008850D02*
X014363Y009350D01*
X021123Y016628D02*
X023603Y016628D01*
X023603Y017572D01*
X021123Y017572D01*
X021123Y016628D01*
X021123Y018628D02*
X021123Y019572D01*
X023603Y019572D01*
X023603Y018628D01*
X021123Y018628D01*
D13*
X025632Y018677D02*
X025710Y018722D01*
X025710Y018721D02*
X025738Y018677D01*
X025769Y018635D01*
X025802Y018595D01*
X025838Y018557D01*
X025877Y018522D01*
X025918Y018490D01*
X025962Y018460D01*
X026007Y018434D01*
X026054Y018411D01*
X026102Y018391D01*
X026152Y018375D01*
X026202Y018362D01*
X026254Y018353D01*
X026306Y018347D01*
X026358Y018345D01*
X026359Y018256D01*
X026358Y018255D01*
X026303Y018257D01*
X026249Y018263D01*
X026194Y018272D01*
X026141Y018285D01*
X026089Y018301D01*
X026037Y018320D01*
X025987Y018343D01*
X025939Y018369D01*
X025892Y018398D01*
X025848Y018430D01*
X025805Y018465D01*
X025765Y018503D01*
X025728Y018543D01*
X025693Y018585D01*
X025661Y018630D01*
X025632Y018676D01*
X025640Y018681D01*
X025668Y018635D01*
X025700Y018591D01*
X025735Y018549D01*
X025772Y018509D01*
X025811Y018472D01*
X025853Y018437D01*
X025897Y018406D01*
X025943Y018377D01*
X025991Y018351D01*
X026041Y018329D01*
X026091Y018309D01*
X026143Y018293D01*
X026196Y018281D01*
X026250Y018272D01*
X026304Y018266D01*
X026358Y018264D01*
X026358Y018273D01*
X026304Y018275D01*
X026251Y018281D01*
X026198Y018290D01*
X026146Y018302D01*
X026094Y018318D01*
X026044Y018337D01*
X025995Y018359D01*
X025948Y018385D01*
X025902Y018413D01*
X025859Y018445D01*
X025817Y018479D01*
X025778Y018515D01*
X025741Y018555D01*
X025707Y018596D01*
X025676Y018640D01*
X025647Y018685D01*
X025655Y018690D01*
X025685Y018642D01*
X025719Y018596D01*
X025755Y018553D01*
X025795Y018512D01*
X025837Y018474D01*
X025881Y018439D01*
X025928Y018407D01*
X025977Y018379D01*
X026028Y018354D01*
X026081Y018332D01*
X026134Y018315D01*
X026189Y018301D01*
X026245Y018291D01*
X026301Y018284D01*
X026358Y018282D01*
X026358Y018291D01*
X026302Y018293D01*
X026246Y018299D01*
X026191Y018309D01*
X026137Y018323D01*
X026084Y018341D01*
X026032Y018362D01*
X025981Y018387D01*
X025933Y018415D01*
X025887Y018446D01*
X025842Y018481D01*
X025801Y018518D01*
X025762Y018559D01*
X025726Y018601D01*
X025693Y018647D01*
X025663Y018694D01*
X025671Y018699D01*
X025700Y018652D01*
X025733Y018607D01*
X025769Y018565D01*
X025807Y018525D01*
X025848Y018488D01*
X025892Y018453D01*
X025938Y018422D01*
X025986Y018395D01*
X026035Y018370D01*
X026087Y018349D01*
X026139Y018332D01*
X026193Y018318D01*
X026248Y018308D01*
X026303Y018302D01*
X026358Y018300D01*
X026358Y018309D01*
X026303Y018311D01*
X026249Y018317D01*
X026195Y018327D01*
X026142Y018341D01*
X026090Y018358D01*
X026039Y018378D01*
X025990Y018403D01*
X025943Y018430D01*
X025897Y018461D01*
X025854Y018494D01*
X025813Y018531D01*
X025775Y018571D01*
X025740Y018613D01*
X025708Y018657D01*
X025679Y018703D01*
X025687Y018708D01*
X025715Y018662D01*
X025747Y018618D01*
X025782Y018577D01*
X025820Y018538D01*
X025860Y018501D01*
X025902Y018468D01*
X025947Y018438D01*
X025994Y018410D01*
X026043Y018387D01*
X026093Y018366D01*
X026144Y018349D01*
X026197Y018336D01*
X026250Y018326D01*
X026304Y018320D01*
X026358Y018318D01*
X026358Y018327D01*
X026305Y018329D01*
X026251Y018335D01*
X026199Y018345D01*
X026147Y018358D01*
X026096Y018375D01*
X026046Y018395D01*
X025998Y018418D01*
X025952Y018445D01*
X025908Y018475D01*
X025866Y018508D01*
X025826Y018544D01*
X025789Y018583D01*
X025754Y018624D01*
X025723Y018667D01*
X025694Y018712D01*
X025702Y018717D01*
X025730Y018672D01*
X025761Y018629D01*
X025795Y018589D01*
X025832Y018551D01*
X025871Y018515D01*
X025913Y018483D01*
X025957Y018453D01*
X026003Y018426D01*
X026050Y018403D01*
X026099Y018383D01*
X026149Y018366D01*
X026201Y018353D01*
X026253Y018344D01*
X026305Y018338D01*
X026358Y018336D01*
X026358Y019944D02*
X026358Y019854D01*
X026358Y019855D02*
X026304Y019853D01*
X026251Y019847D01*
X026198Y019837D01*
X026146Y019823D01*
X026095Y019806D01*
X026046Y019785D01*
X025998Y019761D01*
X025952Y019733D01*
X025908Y019702D01*
X025866Y019668D01*
X025827Y019632D01*
X025790Y019592D01*
X025757Y019550D01*
X025726Y019506D01*
X025699Y019460D01*
X025620Y019502D01*
X025648Y019551D01*
X025680Y019597D01*
X025715Y019642D01*
X025752Y019684D01*
X025793Y019724D01*
X025836Y019760D01*
X025881Y019794D01*
X025928Y019825D01*
X025978Y019852D01*
X026029Y019876D01*
X026081Y019897D01*
X026135Y019914D01*
X026190Y019927D01*
X026245Y019937D01*
X026302Y019943D01*
X026358Y019945D01*
X026358Y019936D01*
X026302Y019934D01*
X026247Y019928D01*
X026192Y019918D01*
X026137Y019905D01*
X026084Y019888D01*
X026032Y019868D01*
X025982Y019844D01*
X025933Y019817D01*
X025886Y019787D01*
X025841Y019753D01*
X025799Y019717D01*
X025759Y019678D01*
X025722Y019636D01*
X025687Y019592D01*
X025656Y019546D01*
X025628Y019498D01*
X025636Y019494D01*
X025664Y019541D01*
X025695Y019587D01*
X025729Y019630D01*
X025765Y019672D01*
X025805Y019710D01*
X025847Y019746D01*
X025891Y019779D01*
X025937Y019809D01*
X025986Y019836D01*
X026036Y019859D01*
X026087Y019880D01*
X026140Y019896D01*
X026193Y019909D01*
X026248Y019919D01*
X026303Y019925D01*
X026358Y019927D01*
X026358Y019918D01*
X026303Y019916D01*
X026249Y019910D01*
X026195Y019901D01*
X026142Y019888D01*
X026090Y019871D01*
X026039Y019851D01*
X025990Y019828D01*
X025942Y019801D01*
X025896Y019772D01*
X025852Y019739D01*
X025811Y019704D01*
X025772Y019665D01*
X025735Y019625D01*
X025702Y019582D01*
X025671Y019536D01*
X025644Y019489D01*
X025652Y019485D01*
X025679Y019532D01*
X025709Y019576D01*
X025742Y019619D01*
X025778Y019659D01*
X025817Y019697D01*
X025858Y019732D01*
X025901Y019764D01*
X025947Y019794D01*
X025994Y019820D01*
X026043Y019843D01*
X026093Y019863D01*
X026145Y019879D01*
X026197Y019892D01*
X026250Y019901D01*
X026304Y019907D01*
X026358Y019909D01*
X026358Y019900D01*
X026305Y019898D01*
X026252Y019892D01*
X026199Y019883D01*
X026147Y019870D01*
X026096Y019854D01*
X026046Y019835D01*
X025998Y019812D01*
X025951Y019786D01*
X025907Y019757D01*
X025864Y019725D01*
X025823Y019690D01*
X025785Y019653D01*
X025749Y019613D01*
X025716Y019571D01*
X025686Y019527D01*
X025659Y019481D01*
X025667Y019477D01*
X025694Y019522D01*
X025724Y019566D01*
X025756Y019607D01*
X025791Y019647D01*
X025829Y019684D01*
X025869Y019718D01*
X025912Y019750D01*
X025956Y019778D01*
X026002Y019804D01*
X026050Y019826D01*
X026099Y019846D01*
X026149Y019862D01*
X026201Y019874D01*
X026253Y019883D01*
X026305Y019889D01*
X026358Y019891D01*
X026358Y019882D01*
X026302Y019880D01*
X026247Y019873D01*
X026192Y019863D01*
X026138Y019849D01*
X026086Y019831D01*
X026034Y019810D01*
X025985Y019784D01*
X025937Y019756D01*
X025891Y019724D01*
X025848Y019689D01*
X025808Y019651D01*
X025770Y019610D01*
X025735Y019566D01*
X025704Y019520D01*
X025675Y019472D01*
X025683Y019468D01*
X025711Y019516D01*
X025742Y019561D01*
X025777Y019604D01*
X025814Y019644D01*
X025854Y019682D01*
X025897Y019717D01*
X025942Y019748D01*
X025989Y019777D01*
X026038Y019801D01*
X026089Y019823D01*
X026141Y019840D01*
X026194Y019854D01*
X026248Y019864D01*
X026303Y019871D01*
X026358Y019873D01*
X026358Y019864D01*
X026304Y019862D01*
X026250Y019856D01*
X026196Y019846D01*
X026144Y019832D01*
X026092Y019814D01*
X026042Y019793D01*
X025993Y019769D01*
X025947Y019741D01*
X025902Y019709D01*
X025860Y019675D01*
X025821Y019638D01*
X025784Y019598D01*
X025750Y019556D01*
X025719Y019511D01*
X025691Y019464D01*
X027008Y019644D02*
X026939Y019587D01*
X026940Y019587D02*
X026903Y019627D01*
X026864Y019665D01*
X026822Y019699D01*
X026778Y019731D01*
X026732Y019759D01*
X026683Y019784D01*
X026633Y019805D01*
X026582Y019823D01*
X026529Y019836D01*
X026476Y019846D01*
X026422Y019853D01*
X026368Y019855D01*
X026367Y019944D01*
X026368Y019945D01*
X026424Y019943D01*
X026480Y019937D01*
X026535Y019927D01*
X026590Y019914D01*
X026643Y019897D01*
X026696Y019877D01*
X026747Y019853D01*
X026796Y019826D01*
X026843Y019795D01*
X026888Y019762D01*
X026931Y019726D01*
X026971Y019687D01*
X027009Y019645D01*
X027002Y019639D01*
X026965Y019680D01*
X026925Y019719D01*
X026883Y019755D01*
X026838Y019788D01*
X026791Y019818D01*
X026743Y019845D01*
X026692Y019868D01*
X026640Y019889D01*
X026587Y019905D01*
X026533Y019918D01*
X026479Y019928D01*
X026424Y019934D01*
X026368Y019936D01*
X026368Y019927D01*
X026423Y019925D01*
X026478Y019919D01*
X026532Y019910D01*
X026585Y019897D01*
X026637Y019880D01*
X026689Y019860D01*
X026738Y019837D01*
X026787Y019810D01*
X026833Y019781D01*
X026877Y019748D01*
X026919Y019712D01*
X026958Y019674D01*
X026995Y019633D01*
X026988Y019628D01*
X026952Y019668D01*
X026913Y019706D01*
X026871Y019741D01*
X026828Y019773D01*
X026782Y019803D01*
X026734Y019829D01*
X026685Y019852D01*
X026635Y019872D01*
X026583Y019888D01*
X026530Y019901D01*
X026476Y019910D01*
X026422Y019916D01*
X026368Y019918D01*
X026368Y019909D01*
X026422Y019907D01*
X026475Y019901D01*
X026528Y019892D01*
X026580Y019879D01*
X026632Y019863D01*
X026682Y019844D01*
X026730Y019821D01*
X026777Y019795D01*
X026823Y019766D01*
X026866Y019734D01*
X026907Y019699D01*
X026945Y019662D01*
X026981Y019622D01*
X026974Y019616D01*
X026939Y019655D01*
X026901Y019692D01*
X026860Y019727D01*
X026817Y019758D01*
X026773Y019787D01*
X026726Y019813D01*
X026678Y019835D01*
X026629Y019855D01*
X026578Y019871D01*
X026526Y019883D01*
X026474Y019892D01*
X026421Y019898D01*
X026368Y019900D01*
X026368Y019891D01*
X026420Y019889D01*
X026473Y019883D01*
X026524Y019874D01*
X026575Y019862D01*
X026626Y019846D01*
X026675Y019827D01*
X026722Y019805D01*
X026768Y019779D01*
X026812Y019751D01*
X026854Y019720D01*
X026895Y019686D01*
X026932Y019649D01*
X026967Y019610D01*
X026961Y019604D01*
X026926Y019643D01*
X026888Y019679D01*
X026849Y019713D01*
X026807Y019744D01*
X026763Y019772D01*
X026718Y019797D01*
X026671Y019819D01*
X026623Y019838D01*
X026573Y019853D01*
X026523Y019866D01*
X026471Y019874D01*
X026420Y019880D01*
X026368Y019882D01*
X026368Y019873D01*
X026419Y019871D01*
X026470Y019866D01*
X026521Y019857D01*
X026571Y019845D01*
X026620Y019829D01*
X026667Y019811D01*
X026714Y019789D01*
X026759Y019764D01*
X026802Y019736D01*
X026843Y019706D01*
X026882Y019673D01*
X026919Y019637D01*
X026954Y019599D01*
X026947Y019593D01*
X026910Y019634D01*
X026870Y019672D01*
X026828Y019706D01*
X026783Y019738D01*
X026736Y019767D01*
X026687Y019792D01*
X026636Y019813D01*
X026585Y019831D01*
X026531Y019845D01*
X026477Y019855D01*
X026423Y019862D01*
X026368Y019864D01*
X026367Y018256D02*
X026367Y018346D01*
X026368Y018345D02*
X026422Y018347D01*
X026475Y018353D01*
X026528Y018363D01*
X026580Y018377D01*
X026631Y018394D01*
X026681Y018415D01*
X026729Y018439D01*
X026775Y018467D01*
X026819Y018498D01*
X026860Y018532D01*
X026900Y018569D01*
X026936Y018608D01*
X027004Y018551D01*
X027005Y018550D01*
X026967Y018509D01*
X026927Y018471D01*
X026884Y018435D01*
X026839Y018402D01*
X026792Y018372D01*
X026744Y018346D01*
X026693Y018322D01*
X026641Y018302D01*
X026588Y018286D01*
X026534Y018272D01*
X026479Y018263D01*
X026424Y018257D01*
X026368Y018255D01*
X026368Y018264D01*
X026423Y018266D01*
X026478Y018272D01*
X026532Y018281D01*
X026586Y018294D01*
X026638Y018311D01*
X026690Y018330D01*
X026740Y018354D01*
X026788Y018380D01*
X026834Y018410D01*
X026879Y018442D01*
X026921Y018477D01*
X026961Y018516D01*
X026998Y018556D01*
X026991Y018562D01*
X026954Y018522D01*
X026915Y018484D01*
X026873Y018449D01*
X026829Y018417D01*
X026783Y018388D01*
X026735Y018362D01*
X026686Y018339D01*
X026635Y018319D01*
X026583Y018303D01*
X026530Y018290D01*
X026477Y018281D01*
X026422Y018275D01*
X026368Y018273D01*
X026368Y018282D01*
X026422Y018284D01*
X026475Y018290D01*
X026528Y018299D01*
X026581Y018312D01*
X026632Y018328D01*
X026683Y018347D01*
X026731Y018370D01*
X026779Y018395D01*
X026824Y018424D01*
X026868Y018456D01*
X026909Y018491D01*
X026948Y018528D01*
X026984Y018568D01*
X026977Y018574D01*
X026941Y018534D01*
X026903Y018497D01*
X026862Y018463D01*
X026819Y018432D01*
X026774Y018403D01*
X026727Y018378D01*
X026679Y018355D01*
X026629Y018336D01*
X026578Y018320D01*
X026527Y018308D01*
X026474Y018299D01*
X026421Y018293D01*
X026368Y018291D01*
X026368Y018300D01*
X026421Y018302D01*
X026473Y018308D01*
X026525Y018317D01*
X026576Y018329D01*
X026626Y018345D01*
X026676Y018364D01*
X026723Y018386D01*
X026770Y018411D01*
X026814Y018439D01*
X026856Y018470D01*
X026897Y018504D01*
X026935Y018541D01*
X026970Y018579D01*
X026964Y018585D01*
X026928Y018547D01*
X026891Y018511D01*
X026851Y018477D01*
X026809Y018447D01*
X026765Y018419D01*
X026719Y018394D01*
X026672Y018372D01*
X026623Y018353D01*
X026574Y018338D01*
X026523Y018325D01*
X026472Y018317D01*
X026420Y018311D01*
X026368Y018309D01*
X026368Y018318D01*
X026424Y018320D01*
X026479Y018327D01*
X026534Y018337D01*
X026588Y018351D01*
X026641Y018369D01*
X026692Y018391D01*
X026742Y018416D01*
X026790Y018445D01*
X026835Y018477D01*
X026878Y018512D01*
X026919Y018550D01*
X026957Y018591D01*
X026950Y018597D01*
X026913Y018556D01*
X026872Y018519D01*
X026830Y018484D01*
X026785Y018452D01*
X026737Y018424D01*
X026688Y018399D01*
X026637Y018377D01*
X026585Y018360D01*
X026532Y018346D01*
X026478Y018336D01*
X026423Y018329D01*
X026368Y018327D01*
X026368Y018336D01*
X026422Y018338D01*
X026476Y018344D01*
X026530Y018354D01*
X026583Y018368D01*
X026634Y018386D01*
X026684Y018407D01*
X026733Y018432D01*
X026780Y018460D01*
X026824Y018491D01*
X026866Y018525D01*
X026906Y018563D01*
X026943Y018603D01*
X026358Y017944D02*
X026358Y017854D01*
X026358Y017855D02*
X026304Y017853D01*
X026251Y017847D01*
X026198Y017837D01*
X026146Y017823D01*
X026095Y017806D01*
X026046Y017785D01*
X025998Y017761D01*
X025952Y017733D01*
X025908Y017702D01*
X025866Y017668D01*
X025827Y017632D01*
X025790Y017592D01*
X025757Y017550D01*
X025726Y017506D01*
X025699Y017460D01*
X025620Y017502D01*
X025648Y017551D01*
X025680Y017597D01*
X025715Y017642D01*
X025752Y017684D01*
X025793Y017724D01*
X025836Y017760D01*
X025881Y017794D01*
X025928Y017825D01*
X025978Y017852D01*
X026029Y017876D01*
X026081Y017897D01*
X026135Y017914D01*
X026190Y017927D01*
X026245Y017937D01*
X026302Y017943D01*
X026358Y017945D01*
X026358Y017936D01*
X026302Y017934D01*
X026247Y017928D01*
X026192Y017918D01*
X026137Y017905D01*
X026084Y017888D01*
X026032Y017868D01*
X025982Y017844D01*
X025933Y017817D01*
X025886Y017787D01*
X025841Y017753D01*
X025799Y017717D01*
X025759Y017678D01*
X025722Y017636D01*
X025687Y017592D01*
X025656Y017546D01*
X025628Y017498D01*
X025636Y017494D01*
X025664Y017541D01*
X025695Y017587D01*
X025729Y017630D01*
X025765Y017672D01*
X025805Y017710D01*
X025847Y017746D01*
X025891Y017779D01*
X025937Y017809D01*
X025986Y017836D01*
X026036Y017859D01*
X026087Y017880D01*
X026140Y017896D01*
X026193Y017909D01*
X026248Y017919D01*
X026303Y017925D01*
X026358Y017927D01*
X026358Y017918D01*
X026303Y017916D01*
X026249Y017910D01*
X026195Y017901D01*
X026142Y017888D01*
X026090Y017871D01*
X026039Y017851D01*
X025990Y017828D01*
X025942Y017801D01*
X025896Y017772D01*
X025852Y017739D01*
X025811Y017704D01*
X025772Y017665D01*
X025735Y017625D01*
X025702Y017582D01*
X025671Y017536D01*
X025644Y017489D01*
X025652Y017485D01*
X025679Y017532D01*
X025709Y017576D01*
X025742Y017619D01*
X025778Y017659D01*
X025817Y017697D01*
X025858Y017732D01*
X025901Y017764D01*
X025947Y017794D01*
X025994Y017820D01*
X026043Y017843D01*
X026093Y017863D01*
X026145Y017879D01*
X026197Y017892D01*
X026250Y017901D01*
X026304Y017907D01*
X026358Y017909D01*
X026358Y017900D01*
X026305Y017898D01*
X026252Y017892D01*
X026199Y017883D01*
X026147Y017870D01*
X026096Y017854D01*
X026046Y017835D01*
X025998Y017812D01*
X025951Y017786D01*
X025907Y017757D01*
X025864Y017725D01*
X025823Y017690D01*
X025785Y017653D01*
X025749Y017613D01*
X025716Y017571D01*
X025686Y017527D01*
X025659Y017481D01*
X025667Y017477D01*
X025694Y017522D01*
X025724Y017566D01*
X025756Y017607D01*
X025791Y017647D01*
X025829Y017684D01*
X025869Y017718D01*
X025912Y017750D01*
X025956Y017778D01*
X026002Y017804D01*
X026050Y017826D01*
X026099Y017846D01*
X026149Y017862D01*
X026201Y017874D01*
X026253Y017883D01*
X026305Y017889D01*
X026358Y017891D01*
X026358Y017882D01*
X026302Y017880D01*
X026247Y017873D01*
X026192Y017863D01*
X026138Y017849D01*
X026086Y017831D01*
X026034Y017810D01*
X025985Y017784D01*
X025937Y017756D01*
X025891Y017724D01*
X025848Y017689D01*
X025808Y017651D01*
X025770Y017610D01*
X025735Y017566D01*
X025704Y017520D01*
X025675Y017472D01*
X025683Y017468D01*
X025711Y017516D01*
X025742Y017561D01*
X025777Y017604D01*
X025814Y017644D01*
X025854Y017682D01*
X025897Y017717D01*
X025942Y017748D01*
X025989Y017777D01*
X026038Y017801D01*
X026089Y017823D01*
X026141Y017840D01*
X026194Y017854D01*
X026248Y017864D01*
X026303Y017871D01*
X026358Y017873D01*
X026358Y017864D01*
X026304Y017862D01*
X026250Y017856D01*
X026196Y017846D01*
X026144Y017832D01*
X026092Y017814D01*
X026042Y017793D01*
X025993Y017769D01*
X025947Y017741D01*
X025902Y017709D01*
X025860Y017675D01*
X025821Y017638D01*
X025784Y017598D01*
X025750Y017556D01*
X025719Y017511D01*
X025691Y017464D01*
X025632Y016677D02*
X025710Y016722D01*
X025710Y016721D02*
X025738Y016677D01*
X025769Y016635D01*
X025802Y016595D01*
X025838Y016557D01*
X025877Y016522D01*
X025918Y016490D01*
X025962Y016460D01*
X026007Y016434D01*
X026054Y016411D01*
X026102Y016391D01*
X026152Y016375D01*
X026202Y016362D01*
X026254Y016353D01*
X026306Y016347D01*
X026358Y016345D01*
X026359Y016256D01*
X026358Y016255D01*
X026303Y016257D01*
X026249Y016263D01*
X026194Y016272D01*
X026141Y016285D01*
X026089Y016301D01*
X026037Y016320D01*
X025987Y016343D01*
X025939Y016369D01*
X025892Y016398D01*
X025848Y016430D01*
X025805Y016465D01*
X025765Y016503D01*
X025728Y016543D01*
X025693Y016585D01*
X025661Y016630D01*
X025632Y016676D01*
X025640Y016681D01*
X025668Y016635D01*
X025700Y016591D01*
X025735Y016549D01*
X025772Y016509D01*
X025811Y016472D01*
X025853Y016437D01*
X025897Y016406D01*
X025943Y016377D01*
X025991Y016351D01*
X026041Y016329D01*
X026091Y016309D01*
X026143Y016293D01*
X026196Y016281D01*
X026250Y016272D01*
X026304Y016266D01*
X026358Y016264D01*
X026358Y016273D01*
X026304Y016275D01*
X026251Y016281D01*
X026198Y016290D01*
X026146Y016302D01*
X026094Y016318D01*
X026044Y016337D01*
X025995Y016359D01*
X025948Y016385D01*
X025902Y016413D01*
X025859Y016445D01*
X025817Y016479D01*
X025778Y016515D01*
X025741Y016555D01*
X025707Y016596D01*
X025676Y016640D01*
X025647Y016685D01*
X025655Y016690D01*
X025685Y016642D01*
X025719Y016596D01*
X025755Y016553D01*
X025795Y016512D01*
X025837Y016474D01*
X025881Y016439D01*
X025928Y016407D01*
X025977Y016379D01*
X026028Y016354D01*
X026081Y016332D01*
X026134Y016315D01*
X026189Y016301D01*
X026245Y016291D01*
X026301Y016284D01*
X026358Y016282D01*
X026358Y016291D01*
X026302Y016293D01*
X026246Y016299D01*
X026191Y016309D01*
X026137Y016323D01*
X026084Y016341D01*
X026032Y016362D01*
X025981Y016387D01*
X025933Y016415D01*
X025887Y016446D01*
X025842Y016481D01*
X025801Y016518D01*
X025762Y016559D01*
X025726Y016601D01*
X025693Y016647D01*
X025663Y016694D01*
X025671Y016699D01*
X025700Y016652D01*
X025733Y016607D01*
X025769Y016565D01*
X025807Y016525D01*
X025848Y016488D01*
X025892Y016453D01*
X025938Y016422D01*
X025986Y016395D01*
X026035Y016370D01*
X026087Y016349D01*
X026139Y016332D01*
X026193Y016318D01*
X026248Y016308D01*
X026303Y016302D01*
X026358Y016300D01*
X026358Y016309D01*
X026303Y016311D01*
X026249Y016317D01*
X026195Y016327D01*
X026142Y016341D01*
X026090Y016358D01*
X026039Y016378D01*
X025990Y016403D01*
X025943Y016430D01*
X025897Y016461D01*
X025854Y016494D01*
X025813Y016531D01*
X025775Y016571D01*
X025740Y016613D01*
X025708Y016657D01*
X025679Y016703D01*
X025687Y016708D01*
X025715Y016662D01*
X025747Y016618D01*
X025782Y016577D01*
X025820Y016538D01*
X025860Y016501D01*
X025902Y016468D01*
X025947Y016438D01*
X025994Y016410D01*
X026043Y016387D01*
X026093Y016366D01*
X026144Y016349D01*
X026197Y016336D01*
X026250Y016326D01*
X026304Y016320D01*
X026358Y016318D01*
X026358Y016327D01*
X026305Y016329D01*
X026251Y016335D01*
X026199Y016345D01*
X026147Y016358D01*
X026096Y016375D01*
X026046Y016395D01*
X025998Y016418D01*
X025952Y016445D01*
X025908Y016475D01*
X025866Y016508D01*
X025826Y016544D01*
X025789Y016583D01*
X025754Y016624D01*
X025723Y016667D01*
X025694Y016712D01*
X025702Y016717D01*
X025730Y016672D01*
X025761Y016629D01*
X025795Y016589D01*
X025832Y016551D01*
X025871Y016515D01*
X025913Y016483D01*
X025957Y016453D01*
X026003Y016426D01*
X026050Y016403D01*
X026099Y016383D01*
X026149Y016366D01*
X026201Y016353D01*
X026253Y016344D01*
X026305Y016338D01*
X026358Y016336D01*
X026367Y016256D02*
X026367Y016346D01*
X026368Y016345D02*
X026422Y016347D01*
X026475Y016353D01*
X026528Y016363D01*
X026580Y016377D01*
X026631Y016394D01*
X026681Y016415D01*
X026729Y016439D01*
X026775Y016467D01*
X026819Y016498D01*
X026860Y016532D01*
X026900Y016569D01*
X026936Y016608D01*
X027004Y016551D01*
X027005Y016550D01*
X026967Y016509D01*
X026927Y016471D01*
X026884Y016435D01*
X026839Y016402D01*
X026792Y016372D01*
X026744Y016346D01*
X026693Y016322D01*
X026641Y016302D01*
X026588Y016286D01*
X026534Y016272D01*
X026479Y016263D01*
X026424Y016257D01*
X026368Y016255D01*
X026368Y016264D01*
X026423Y016266D01*
X026478Y016272D01*
X026532Y016281D01*
X026586Y016294D01*
X026638Y016311D01*
X026690Y016330D01*
X026740Y016354D01*
X026788Y016380D01*
X026834Y016410D01*
X026879Y016442D01*
X026921Y016477D01*
X026961Y016516D01*
X026998Y016556D01*
X026991Y016562D01*
X026954Y016522D01*
X026915Y016484D01*
X026873Y016449D01*
X026829Y016417D01*
X026783Y016388D01*
X026735Y016362D01*
X026686Y016339D01*
X026635Y016319D01*
X026583Y016303D01*
X026530Y016290D01*
X026477Y016281D01*
X026422Y016275D01*
X026368Y016273D01*
X026368Y016282D01*
X026422Y016284D01*
X026475Y016290D01*
X026528Y016299D01*
X026581Y016312D01*
X026632Y016328D01*
X026683Y016347D01*
X026731Y016370D01*
X026779Y016395D01*
X026824Y016424D01*
X026868Y016456D01*
X026909Y016491D01*
X026948Y016528D01*
X026984Y016568D01*
X026977Y016574D01*
X026941Y016534D01*
X026903Y016497D01*
X026862Y016463D01*
X026819Y016432D01*
X026774Y016403D01*
X026727Y016378D01*
X026679Y016355D01*
X026629Y016336D01*
X026578Y016320D01*
X026527Y016308D01*
X026474Y016299D01*
X026421Y016293D01*
X026368Y016291D01*
X026368Y016300D01*
X026421Y016302D01*
X026473Y016308D01*
X026525Y016317D01*
X026576Y016329D01*
X026626Y016345D01*
X026676Y016364D01*
X026723Y016386D01*
X026770Y016411D01*
X026814Y016439D01*
X026856Y016470D01*
X026897Y016504D01*
X026935Y016541D01*
X026970Y016579D01*
X026964Y016585D01*
X026928Y016547D01*
X026891Y016511D01*
X026851Y016477D01*
X026809Y016447D01*
X026765Y016419D01*
X026719Y016394D01*
X026672Y016372D01*
X026623Y016353D01*
X026574Y016338D01*
X026523Y016325D01*
X026472Y016317D01*
X026420Y016311D01*
X026368Y016309D01*
X026368Y016318D01*
X026424Y016320D01*
X026479Y016327D01*
X026534Y016337D01*
X026588Y016351D01*
X026641Y016369D01*
X026692Y016391D01*
X026742Y016416D01*
X026790Y016445D01*
X026835Y016477D01*
X026878Y016512D01*
X026919Y016550D01*
X026957Y016591D01*
X026950Y016597D01*
X026913Y016556D01*
X026872Y016519D01*
X026830Y016484D01*
X026785Y016452D01*
X026737Y016424D01*
X026688Y016399D01*
X026637Y016377D01*
X026585Y016360D01*
X026532Y016346D01*
X026478Y016336D01*
X026423Y016329D01*
X026368Y016327D01*
X026368Y016336D01*
X026422Y016338D01*
X026476Y016344D01*
X026530Y016354D01*
X026583Y016368D01*
X026634Y016386D01*
X026684Y016407D01*
X026733Y016432D01*
X026780Y016460D01*
X026824Y016491D01*
X026866Y016525D01*
X026906Y016563D01*
X026943Y016603D01*
X027008Y017644D02*
X026939Y017587D01*
X026940Y017587D02*
X026903Y017627D01*
X026864Y017665D01*
X026822Y017699D01*
X026778Y017731D01*
X026732Y017759D01*
X026683Y017784D01*
X026633Y017805D01*
X026582Y017823D01*
X026529Y017836D01*
X026476Y017846D01*
X026422Y017853D01*
X026368Y017855D01*
X026367Y017944D01*
X026368Y017945D01*
X026424Y017943D01*
X026480Y017937D01*
X026535Y017927D01*
X026590Y017914D01*
X026643Y017897D01*
X026696Y017877D01*
X026747Y017853D01*
X026796Y017826D01*
X026843Y017795D01*
X026888Y017762D01*
X026931Y017726D01*
X026971Y017687D01*
X027009Y017645D01*
X027002Y017639D01*
X026965Y017680D01*
X026925Y017719D01*
X026883Y017755D01*
X026838Y017788D01*
X026791Y017818D01*
X026743Y017845D01*
X026692Y017868D01*
X026640Y017889D01*
X026587Y017905D01*
X026533Y017918D01*
X026479Y017928D01*
X026424Y017934D01*
X026368Y017936D01*
X026368Y017927D01*
X026423Y017925D01*
X026478Y017919D01*
X026532Y017910D01*
X026585Y017897D01*
X026637Y017880D01*
X026689Y017860D01*
X026738Y017837D01*
X026787Y017810D01*
X026833Y017781D01*
X026877Y017748D01*
X026919Y017712D01*
X026958Y017674D01*
X026995Y017633D01*
X026988Y017628D01*
X026952Y017668D01*
X026913Y017706D01*
X026871Y017741D01*
X026828Y017773D01*
X026782Y017803D01*
X026734Y017829D01*
X026685Y017852D01*
X026635Y017872D01*
X026583Y017888D01*
X026530Y017901D01*
X026476Y017910D01*
X026422Y017916D01*
X026368Y017918D01*
X026368Y017909D01*
X026422Y017907D01*
X026475Y017901D01*
X026528Y017892D01*
X026580Y017879D01*
X026632Y017863D01*
X026682Y017844D01*
X026730Y017821D01*
X026777Y017795D01*
X026823Y017766D01*
X026866Y017734D01*
X026907Y017699D01*
X026945Y017662D01*
X026981Y017622D01*
X026974Y017616D01*
X026939Y017655D01*
X026901Y017692D01*
X026860Y017727D01*
X026817Y017758D01*
X026773Y017787D01*
X026726Y017813D01*
X026678Y017835D01*
X026629Y017855D01*
X026578Y017871D01*
X026526Y017883D01*
X026474Y017892D01*
X026421Y017898D01*
X026368Y017900D01*
X026368Y017891D01*
X026420Y017889D01*
X026473Y017883D01*
X026524Y017874D01*
X026575Y017862D01*
X026626Y017846D01*
X026675Y017827D01*
X026722Y017805D01*
X026768Y017779D01*
X026812Y017751D01*
X026854Y017720D01*
X026895Y017686D01*
X026932Y017649D01*
X026967Y017610D01*
X026961Y017604D01*
X026926Y017643D01*
X026888Y017679D01*
X026849Y017713D01*
X026807Y017744D01*
X026763Y017772D01*
X026718Y017797D01*
X026671Y017819D01*
X026623Y017838D01*
X026573Y017853D01*
X026523Y017866D01*
X026471Y017874D01*
X026420Y017880D01*
X026368Y017882D01*
X026368Y017873D01*
X026419Y017871D01*
X026470Y017866D01*
X026521Y017857D01*
X026571Y017845D01*
X026620Y017829D01*
X026667Y017811D01*
X026714Y017789D01*
X026759Y017764D01*
X026802Y017736D01*
X026843Y017706D01*
X026882Y017673D01*
X026919Y017637D01*
X026954Y017599D01*
X026947Y017593D01*
X026910Y017634D01*
X026870Y017672D01*
X026828Y017706D01*
X026783Y017738D01*
X026736Y017767D01*
X026687Y017792D01*
X026636Y017813D01*
X026585Y017831D01*
X026531Y017845D01*
X026477Y017855D01*
X026423Y017862D01*
X026368Y017864D01*
X025632Y014677D02*
X025710Y014722D01*
X025710Y014721D02*
X025738Y014677D01*
X025769Y014635D01*
X025802Y014595D01*
X025838Y014557D01*
X025877Y014522D01*
X025918Y014490D01*
X025962Y014460D01*
X026007Y014434D01*
X026054Y014411D01*
X026102Y014391D01*
X026152Y014375D01*
X026202Y014362D01*
X026254Y014353D01*
X026306Y014347D01*
X026358Y014345D01*
X026359Y014256D01*
X026358Y014255D01*
X026303Y014257D01*
X026249Y014263D01*
X026194Y014272D01*
X026141Y014285D01*
X026089Y014301D01*
X026037Y014320D01*
X025987Y014343D01*
X025939Y014369D01*
X025892Y014398D01*
X025848Y014430D01*
X025805Y014465D01*
X025765Y014503D01*
X025728Y014543D01*
X025693Y014585D01*
X025661Y014630D01*
X025632Y014676D01*
X025640Y014681D01*
X025668Y014635D01*
X025700Y014591D01*
X025735Y014549D01*
X025772Y014509D01*
X025811Y014472D01*
X025853Y014437D01*
X025897Y014406D01*
X025943Y014377D01*
X025991Y014351D01*
X026041Y014329D01*
X026091Y014309D01*
X026143Y014293D01*
X026196Y014281D01*
X026250Y014272D01*
X026304Y014266D01*
X026358Y014264D01*
X026358Y014273D01*
X026304Y014275D01*
X026251Y014281D01*
X026198Y014290D01*
X026146Y014302D01*
X026094Y014318D01*
X026044Y014337D01*
X025995Y014359D01*
X025948Y014385D01*
X025902Y014413D01*
X025859Y014445D01*
X025817Y014479D01*
X025778Y014515D01*
X025741Y014555D01*
X025707Y014596D01*
X025676Y014640D01*
X025647Y014685D01*
X025655Y014690D01*
X025685Y014642D01*
X025719Y014596D01*
X025755Y014553D01*
X025795Y014512D01*
X025837Y014474D01*
X025881Y014439D01*
X025928Y014407D01*
X025977Y014379D01*
X026028Y014354D01*
X026081Y014332D01*
X026134Y014315D01*
X026189Y014301D01*
X026245Y014291D01*
X026301Y014284D01*
X026358Y014282D01*
X026358Y014291D01*
X026302Y014293D01*
X026246Y014299D01*
X026191Y014309D01*
X026137Y014323D01*
X026084Y014341D01*
X026032Y014362D01*
X025981Y014387D01*
X025933Y014415D01*
X025887Y014446D01*
X025842Y014481D01*
X025801Y014518D01*
X025762Y014559D01*
X025726Y014601D01*
X025693Y014647D01*
X025663Y014694D01*
X025671Y014699D01*
X025700Y014652D01*
X025733Y014607D01*
X025769Y014565D01*
X025807Y014525D01*
X025848Y014488D01*
X025892Y014453D01*
X025938Y014422D01*
X025986Y014395D01*
X026035Y014370D01*
X026087Y014349D01*
X026139Y014332D01*
X026193Y014318D01*
X026248Y014308D01*
X026303Y014302D01*
X026358Y014300D01*
X026358Y014309D01*
X026303Y014311D01*
X026249Y014317D01*
X026195Y014327D01*
X026142Y014341D01*
X026090Y014358D01*
X026039Y014378D01*
X025990Y014403D01*
X025943Y014430D01*
X025897Y014461D01*
X025854Y014494D01*
X025813Y014531D01*
X025775Y014571D01*
X025740Y014613D01*
X025708Y014657D01*
X025679Y014703D01*
X025687Y014708D01*
X025715Y014662D01*
X025747Y014618D01*
X025782Y014577D01*
X025820Y014538D01*
X025860Y014501D01*
X025902Y014468D01*
X025947Y014438D01*
X025994Y014410D01*
X026043Y014387D01*
X026093Y014366D01*
X026144Y014349D01*
X026197Y014336D01*
X026250Y014326D01*
X026304Y014320D01*
X026358Y014318D01*
X026358Y014327D01*
X026305Y014329D01*
X026251Y014335D01*
X026199Y014345D01*
X026147Y014358D01*
X026096Y014375D01*
X026046Y014395D01*
X025998Y014418D01*
X025952Y014445D01*
X025908Y014475D01*
X025866Y014508D01*
X025826Y014544D01*
X025789Y014583D01*
X025754Y014624D01*
X025723Y014667D01*
X025694Y014712D01*
X025702Y014717D01*
X025730Y014672D01*
X025761Y014629D01*
X025795Y014589D01*
X025832Y014551D01*
X025871Y014515D01*
X025913Y014483D01*
X025957Y014453D01*
X026003Y014426D01*
X026050Y014403D01*
X026099Y014383D01*
X026149Y014366D01*
X026201Y014353D01*
X026253Y014344D01*
X026305Y014338D01*
X026358Y014336D01*
X026358Y015944D02*
X026358Y015854D01*
X026358Y015855D02*
X026304Y015853D01*
X026251Y015847D01*
X026198Y015837D01*
X026146Y015823D01*
X026095Y015806D01*
X026046Y015785D01*
X025998Y015761D01*
X025952Y015733D01*
X025908Y015702D01*
X025866Y015668D01*
X025827Y015632D01*
X025790Y015592D01*
X025757Y015550D01*
X025726Y015506D01*
X025699Y015460D01*
X025620Y015502D01*
X025648Y015551D01*
X025680Y015597D01*
X025715Y015642D01*
X025752Y015684D01*
X025793Y015724D01*
X025836Y015760D01*
X025881Y015794D01*
X025928Y015825D01*
X025978Y015852D01*
X026029Y015876D01*
X026081Y015897D01*
X026135Y015914D01*
X026190Y015927D01*
X026245Y015937D01*
X026302Y015943D01*
X026358Y015945D01*
X026358Y015936D01*
X026302Y015934D01*
X026247Y015928D01*
X026192Y015918D01*
X026137Y015905D01*
X026084Y015888D01*
X026032Y015868D01*
X025982Y015844D01*
X025933Y015817D01*
X025886Y015787D01*
X025841Y015753D01*
X025799Y015717D01*
X025759Y015678D01*
X025722Y015636D01*
X025687Y015592D01*
X025656Y015546D01*
X025628Y015498D01*
X025636Y015494D01*
X025664Y015541D01*
X025695Y015587D01*
X025729Y015630D01*
X025765Y015672D01*
X025805Y015710D01*
X025847Y015746D01*
X025891Y015779D01*
X025937Y015809D01*
X025986Y015836D01*
X026036Y015859D01*
X026087Y015880D01*
X026140Y015896D01*
X026193Y015909D01*
X026248Y015919D01*
X026303Y015925D01*
X026358Y015927D01*
X026358Y015918D01*
X026303Y015916D01*
X026249Y015910D01*
X026195Y015901D01*
X026142Y015888D01*
X026090Y015871D01*
X026039Y015851D01*
X025990Y015828D01*
X025942Y015801D01*
X025896Y015772D01*
X025852Y015739D01*
X025811Y015704D01*
X025772Y015665D01*
X025735Y015625D01*
X025702Y015582D01*
X025671Y015536D01*
X025644Y015489D01*
X025652Y015485D01*
X025679Y015532D01*
X025709Y015576D01*
X025742Y015619D01*
X025778Y015659D01*
X025817Y015697D01*
X025858Y015732D01*
X025901Y015764D01*
X025947Y015794D01*
X025994Y015820D01*
X026043Y015843D01*
X026093Y015863D01*
X026145Y015879D01*
X026197Y015892D01*
X026250Y015901D01*
X026304Y015907D01*
X026358Y015909D01*
X026358Y015900D01*
X026305Y015898D01*
X026252Y015892D01*
X026199Y015883D01*
X026147Y015870D01*
X026096Y015854D01*
X026046Y015835D01*
X025998Y015812D01*
X025951Y015786D01*
X025907Y015757D01*
X025864Y015725D01*
X025823Y015690D01*
X025785Y015653D01*
X025749Y015613D01*
X025716Y015571D01*
X025686Y015527D01*
X025659Y015481D01*
X025667Y015477D01*
X025694Y015522D01*
X025724Y015566D01*
X025756Y015607D01*
X025791Y015647D01*
X025829Y015684D01*
X025869Y015718D01*
X025912Y015750D01*
X025956Y015778D01*
X026002Y015804D01*
X026050Y015826D01*
X026099Y015846D01*
X026149Y015862D01*
X026201Y015874D01*
X026253Y015883D01*
X026305Y015889D01*
X026358Y015891D01*
X026358Y015882D01*
X026302Y015880D01*
X026247Y015873D01*
X026192Y015863D01*
X026138Y015849D01*
X026086Y015831D01*
X026034Y015810D01*
X025985Y015784D01*
X025937Y015756D01*
X025891Y015724D01*
X025848Y015689D01*
X025808Y015651D01*
X025770Y015610D01*
X025735Y015566D01*
X025704Y015520D01*
X025675Y015472D01*
X025683Y015468D01*
X025711Y015516D01*
X025742Y015561D01*
X025777Y015604D01*
X025814Y015644D01*
X025854Y015682D01*
X025897Y015717D01*
X025942Y015748D01*
X025989Y015777D01*
X026038Y015801D01*
X026089Y015823D01*
X026141Y015840D01*
X026194Y015854D01*
X026248Y015864D01*
X026303Y015871D01*
X026358Y015873D01*
X026358Y015864D01*
X026304Y015862D01*
X026250Y015856D01*
X026196Y015846D01*
X026144Y015832D01*
X026092Y015814D01*
X026042Y015793D01*
X025993Y015769D01*
X025947Y015741D01*
X025902Y015709D01*
X025860Y015675D01*
X025821Y015638D01*
X025784Y015598D01*
X025750Y015556D01*
X025719Y015511D01*
X025691Y015464D01*
X027008Y015644D02*
X026939Y015587D01*
X026940Y015587D02*
X026903Y015627D01*
X026864Y015665D01*
X026822Y015699D01*
X026778Y015731D01*
X026732Y015759D01*
X026683Y015784D01*
X026633Y015805D01*
X026582Y015823D01*
X026529Y015836D01*
X026476Y015846D01*
X026422Y015853D01*
X026368Y015855D01*
X026367Y015944D01*
X026368Y015945D01*
X026424Y015943D01*
X026480Y015937D01*
X026535Y015927D01*
X026590Y015914D01*
X026643Y015897D01*
X026696Y015877D01*
X026747Y015853D01*
X026796Y015826D01*
X026843Y015795D01*
X026888Y015762D01*
X026931Y015726D01*
X026971Y015687D01*
X027009Y015645D01*
X027002Y015639D01*
X026965Y015680D01*
X026925Y015719D01*
X026883Y015755D01*
X026838Y015788D01*
X026791Y015818D01*
X026743Y015845D01*
X026692Y015868D01*
X026640Y015889D01*
X026587Y015905D01*
X026533Y015918D01*
X026479Y015928D01*
X026424Y015934D01*
X026368Y015936D01*
X026368Y015927D01*
X026423Y015925D01*
X026478Y015919D01*
X026532Y015910D01*
X026585Y015897D01*
X026637Y015880D01*
X026689Y015860D01*
X026738Y015837D01*
X026787Y015810D01*
X026833Y015781D01*
X026877Y015748D01*
X026919Y015712D01*
X026958Y015674D01*
X026995Y015633D01*
X026988Y015628D01*
X026952Y015668D01*
X026913Y015706D01*
X026871Y015741D01*
X026828Y015773D01*
X026782Y015803D01*
X026734Y015829D01*
X026685Y015852D01*
X026635Y015872D01*
X026583Y015888D01*
X026530Y015901D01*
X026476Y015910D01*
X026422Y015916D01*
X026368Y015918D01*
X026368Y015909D01*
X026422Y015907D01*
X026475Y015901D01*
X026528Y015892D01*
X026580Y015879D01*
X026632Y015863D01*
X026682Y015844D01*
X026730Y015821D01*
X026777Y015795D01*
X026823Y015766D01*
X026866Y015734D01*
X026907Y015699D01*
X026945Y015662D01*
X026981Y015622D01*
X026974Y015616D01*
X026939Y015655D01*
X026901Y015692D01*
X026860Y015727D01*
X026817Y015758D01*
X026773Y015787D01*
X026726Y015813D01*
X026678Y015835D01*
X026629Y015855D01*
X026578Y015871D01*
X026526Y015883D01*
X026474Y015892D01*
X026421Y015898D01*
X026368Y015900D01*
X026368Y015891D01*
X026420Y015889D01*
X026473Y015883D01*
X026524Y015874D01*
X026575Y015862D01*
X026626Y015846D01*
X026675Y015827D01*
X026722Y015805D01*
X026768Y015779D01*
X026812Y015751D01*
X026854Y015720D01*
X026895Y015686D01*
X026932Y015649D01*
X026967Y015610D01*
X026961Y015604D01*
X026926Y015643D01*
X026888Y015679D01*
X026849Y015713D01*
X026807Y015744D01*
X026763Y015772D01*
X026718Y015797D01*
X026671Y015819D01*
X026623Y015838D01*
X026573Y015853D01*
X026523Y015866D01*
X026471Y015874D01*
X026420Y015880D01*
X026368Y015882D01*
X026368Y015873D01*
X026419Y015871D01*
X026470Y015866D01*
X026521Y015857D01*
X026571Y015845D01*
X026620Y015829D01*
X026667Y015811D01*
X026714Y015789D01*
X026759Y015764D01*
X026802Y015736D01*
X026843Y015706D01*
X026882Y015673D01*
X026919Y015637D01*
X026954Y015599D01*
X026947Y015593D01*
X026910Y015634D01*
X026870Y015672D01*
X026828Y015706D01*
X026783Y015738D01*
X026736Y015767D01*
X026687Y015792D01*
X026636Y015813D01*
X026585Y015831D01*
X026531Y015845D01*
X026477Y015855D01*
X026423Y015862D01*
X026368Y015864D01*
X026367Y014256D02*
X026367Y014346D01*
X026368Y014345D02*
X026422Y014347D01*
X026475Y014353D01*
X026528Y014363D01*
X026580Y014377D01*
X026631Y014394D01*
X026681Y014415D01*
X026729Y014439D01*
X026775Y014467D01*
X026819Y014498D01*
X026860Y014532D01*
X026900Y014569D01*
X026936Y014608D01*
X027004Y014551D01*
X027005Y014550D01*
X026967Y014509D01*
X026927Y014471D01*
X026884Y014435D01*
X026839Y014402D01*
X026792Y014372D01*
X026744Y014346D01*
X026693Y014322D01*
X026641Y014302D01*
X026588Y014286D01*
X026534Y014272D01*
X026479Y014263D01*
X026424Y014257D01*
X026368Y014255D01*
X026368Y014264D01*
X026423Y014266D01*
X026478Y014272D01*
X026532Y014281D01*
X026586Y014294D01*
X026638Y014311D01*
X026690Y014330D01*
X026740Y014354D01*
X026788Y014380D01*
X026834Y014410D01*
X026879Y014442D01*
X026921Y014477D01*
X026961Y014516D01*
X026998Y014556D01*
X026991Y014562D01*
X026954Y014522D01*
X026915Y014484D01*
X026873Y014449D01*
X026829Y014417D01*
X026783Y014388D01*
X026735Y014362D01*
X026686Y014339D01*
X026635Y014319D01*
X026583Y014303D01*
X026530Y014290D01*
X026477Y014281D01*
X026422Y014275D01*
X026368Y014273D01*
X026368Y014282D01*
X026422Y014284D01*
X026475Y014290D01*
X026528Y014299D01*
X026581Y014312D01*
X026632Y014328D01*
X026683Y014347D01*
X026731Y014370D01*
X026779Y014395D01*
X026824Y014424D01*
X026868Y014456D01*
X026909Y014491D01*
X026948Y014528D01*
X026984Y014568D01*
X026977Y014574D01*
X026941Y014534D01*
X026903Y014497D01*
X026862Y014463D01*
X026819Y014432D01*
X026774Y014403D01*
X026727Y014378D01*
X026679Y014355D01*
X026629Y014336D01*
X026578Y014320D01*
X026527Y014308D01*
X026474Y014299D01*
X026421Y014293D01*
X026368Y014291D01*
X026368Y014300D01*
X026421Y014302D01*
X026473Y014308D01*
X026525Y014317D01*
X026576Y014329D01*
X026626Y014345D01*
X026676Y014364D01*
X026723Y014386D01*
X026770Y014411D01*
X026814Y014439D01*
X026856Y014470D01*
X026897Y014504D01*
X026935Y014541D01*
X026970Y014579D01*
X026964Y014585D01*
X026928Y014547D01*
X026891Y014511D01*
X026851Y014477D01*
X026809Y014447D01*
X026765Y014419D01*
X026719Y014394D01*
X026672Y014372D01*
X026623Y014353D01*
X026574Y014338D01*
X026523Y014325D01*
X026472Y014317D01*
X026420Y014311D01*
X026368Y014309D01*
X026368Y014318D01*
X026424Y014320D01*
X026479Y014327D01*
X026534Y014337D01*
X026588Y014351D01*
X026641Y014369D01*
X026692Y014391D01*
X026742Y014416D01*
X026790Y014445D01*
X026835Y014477D01*
X026878Y014512D01*
X026919Y014550D01*
X026957Y014591D01*
X026950Y014597D01*
X026913Y014556D01*
X026872Y014519D01*
X026830Y014484D01*
X026785Y014452D01*
X026737Y014424D01*
X026688Y014399D01*
X026637Y014377D01*
X026585Y014360D01*
X026532Y014346D01*
X026478Y014336D01*
X026423Y014329D01*
X026368Y014327D01*
X026368Y014336D01*
X026422Y014338D01*
X026476Y014344D01*
X026530Y014354D01*
X026583Y014368D01*
X026634Y014386D01*
X026684Y014407D01*
X026733Y014432D01*
X026780Y014460D01*
X026824Y014491D01*
X026866Y014525D01*
X026906Y014563D01*
X026943Y014603D01*
X015258Y009655D02*
X015158Y009655D01*
X015158Y009505D01*
X015110Y009530D02*
X015085Y009505D01*
X015010Y009505D01*
X015010Y009455D02*
X015010Y009605D01*
X015085Y009605D01*
X015110Y009580D01*
X015110Y009530D01*
X015158Y009580D02*
X015208Y009580D01*
X014816Y009605D02*
X014816Y009630D01*
X014791Y009655D01*
X014741Y009655D01*
X014716Y009630D01*
X014668Y009630D02*
X014643Y009655D01*
X014593Y009655D01*
X014568Y009630D01*
X014668Y009630D02*
X014668Y009605D01*
X014568Y009505D01*
X014668Y009505D01*
X014716Y009505D02*
X014816Y009605D01*
X014816Y009505D02*
X014716Y009505D01*
X014016Y009630D02*
X013916Y009530D01*
X013916Y009505D01*
X013868Y009530D02*
X013843Y009505D01*
X013793Y009505D01*
X013768Y009530D01*
X013768Y009630D01*
X013793Y009655D01*
X013843Y009655D01*
X013868Y009630D01*
X013916Y009655D02*
X014016Y009655D01*
X014016Y009630D01*
X012808Y008694D02*
X012808Y008594D01*
X012958Y008594D01*
X012958Y008547D02*
X012858Y008547D01*
X012883Y008594D02*
X012883Y008644D01*
X012958Y008547D02*
X012958Y008472D01*
X012933Y008447D01*
X012858Y008447D01*
X012833Y008252D02*
X012933Y008152D01*
X012958Y008177D01*
X012958Y008227D01*
X012933Y008252D01*
X012833Y008252D01*
X012808Y008227D01*
X012808Y008177D01*
X012833Y008152D01*
X012933Y008152D01*
X012958Y008105D02*
X012958Y008005D01*
X012958Y008055D02*
X012808Y008055D01*
X012858Y008005D01*
X012883Y007752D02*
X012883Y007652D01*
X012808Y007727D01*
X012958Y007727D01*
X012933Y007605D02*
X012958Y007580D01*
X012958Y007530D01*
X012933Y007505D01*
X012833Y007505D01*
X012808Y007530D01*
X012808Y007580D01*
X012833Y007605D01*
X012808Y006094D02*
X012808Y005994D01*
X012958Y005994D01*
X012958Y005947D02*
X012858Y005947D01*
X012883Y005994D02*
X012883Y006044D01*
X012958Y005947D02*
X012958Y005872D01*
X012933Y005847D01*
X012858Y005847D01*
X012833Y005652D02*
X012933Y005552D01*
X012958Y005577D01*
X012958Y005627D01*
X012933Y005652D01*
X012833Y005652D01*
X012808Y005627D01*
X012808Y005577D01*
X012833Y005552D01*
X012933Y005552D01*
X012958Y005505D02*
X012958Y005405D01*
X012958Y005455D02*
X012808Y005455D01*
X012858Y005405D01*
X012858Y005052D02*
X012833Y005052D01*
X012808Y005027D01*
X012808Y004977D01*
X012833Y004952D01*
X012833Y004905D02*
X012808Y004880D01*
X012808Y004830D01*
X012833Y004805D01*
X012933Y004805D01*
X012958Y004830D01*
X012958Y004880D01*
X012933Y004905D01*
X012958Y004952D02*
X012858Y005052D01*
X012958Y005052D02*
X012958Y004952D01*
X013799Y003655D02*
X013774Y003630D01*
X013774Y003530D01*
X013799Y003505D01*
X013849Y003505D01*
X013874Y003530D01*
X013921Y003530D02*
X013921Y003555D01*
X013946Y003580D01*
X013996Y003580D01*
X014021Y003555D01*
X014021Y003530D01*
X013996Y003505D01*
X013946Y003505D01*
X013921Y003530D01*
X013946Y003580D02*
X013921Y003605D01*
X013921Y003630D01*
X013946Y003655D01*
X013996Y003655D01*
X014021Y003630D01*
X014021Y003605D01*
X013996Y003580D01*
X013874Y003630D02*
X013849Y003655D01*
X013799Y003655D01*
X014568Y003630D02*
X014593Y003655D01*
X014643Y003655D01*
X014668Y003630D01*
X014668Y003605D01*
X014568Y003505D01*
X014668Y003505D01*
X014716Y003505D02*
X014816Y003605D01*
X014816Y003630D01*
X014791Y003655D01*
X014741Y003655D01*
X014716Y003630D01*
X014716Y003505D02*
X014816Y003505D01*
X015010Y003505D02*
X015085Y003505D01*
X015110Y003530D01*
X015110Y003580D01*
X015085Y003605D01*
X015010Y003605D01*
X015010Y003455D01*
X015158Y003505D02*
X015158Y003655D01*
X015258Y003655D01*
X015208Y003580D02*
X015158Y003580D01*
X012958Y003494D02*
X012808Y003494D01*
X012808Y003594D01*
X012883Y003544D02*
X012883Y003494D01*
X012858Y003447D02*
X012958Y003447D01*
X012958Y003372D01*
X012933Y003347D01*
X012858Y003347D01*
X012833Y003152D02*
X012933Y003052D01*
X012958Y003077D01*
X012958Y003127D01*
X012933Y003152D01*
X012833Y003152D01*
X012808Y003127D01*
X012808Y003077D01*
X012833Y003052D01*
X012933Y003052D01*
X012958Y003005D02*
X012958Y002905D01*
X012958Y002955D02*
X012808Y002955D01*
X012858Y002905D01*
X012958Y002552D02*
X012958Y002452D01*
X012958Y002502D02*
X012808Y002502D01*
X012858Y002452D01*
X012833Y002405D02*
X012808Y002380D01*
X012808Y002330D01*
X012833Y002305D01*
X012933Y002305D01*
X012958Y002330D01*
X012958Y002380D01*
X012933Y002405D01*
X013774Y001670D02*
X013774Y001570D01*
X013799Y001545D01*
X013849Y001545D01*
X013874Y001570D01*
X013921Y001570D02*
X013946Y001545D01*
X013996Y001545D01*
X014021Y001570D01*
X014021Y001595D01*
X013996Y001620D01*
X013971Y001620D01*
X013996Y001620D02*
X014021Y001645D01*
X014021Y001670D01*
X013996Y001695D01*
X013946Y001695D01*
X013921Y001670D01*
X013874Y001670D02*
X013849Y001695D01*
X013799Y001695D01*
X013774Y001670D01*
X014568Y001645D02*
X014618Y001695D01*
X014618Y001545D01*
X014568Y001545D02*
X014668Y001545D01*
X014716Y001570D02*
X014816Y001670D01*
X014816Y001570D01*
X014791Y001545D01*
X014741Y001545D01*
X014716Y001570D01*
X014716Y001670D01*
X014741Y001695D01*
X014791Y001695D01*
X014816Y001670D01*
X015010Y001645D02*
X015010Y001570D01*
X015035Y001545D01*
X015110Y001545D01*
X015110Y001645D01*
X015158Y001620D02*
X015208Y001620D01*
X015158Y001695D02*
X015258Y001695D01*
X015158Y001695D02*
X015158Y001545D01*
X014291Y014755D02*
X014316Y014780D01*
X014316Y014805D01*
X014291Y014830D01*
X014216Y014830D01*
X014216Y014780D01*
X014241Y014755D01*
X014291Y014755D01*
X014216Y014830D02*
X014266Y014880D01*
X014316Y014905D01*
X014168Y014880D02*
X014143Y014905D01*
X014093Y014905D01*
X014068Y014880D01*
X014068Y014780D01*
X014093Y014755D01*
X014143Y014755D01*
X014168Y014780D01*
X010199Y017292D02*
X010039Y017292D01*
X010039Y017399D01*
X010093Y017448D02*
X010039Y017502D01*
X010199Y017502D01*
X010199Y017555D02*
X010199Y017448D01*
X010119Y017345D02*
X010119Y017292D01*
X009816Y014905D02*
X009716Y014905D01*
X009716Y014830D01*
X009766Y014855D01*
X009791Y014855D01*
X009816Y014830D01*
X009816Y014780D01*
X009791Y014755D01*
X009741Y014755D01*
X009716Y014780D01*
X009668Y014780D02*
X009643Y014755D01*
X009593Y014755D01*
X009568Y014780D01*
X009568Y014880D01*
X009593Y014905D01*
X009643Y014905D01*
X009668Y014880D01*
D14*
X013363Y015550D02*
X018263Y015550D01*
X018263Y015900D01*
X018863Y015900D01*
X018863Y015550D01*
X019613Y015550D01*
X019613Y019650D01*
X018863Y019650D01*
X018863Y019300D01*
X018263Y019300D01*
X018263Y019650D01*
X013363Y019650D01*
X013363Y015550D01*
X017553Y017600D02*
X017555Y017653D01*
X017561Y017706D01*
X017571Y017758D01*
X017585Y017809D01*
X017602Y017859D01*
X017623Y017908D01*
X017648Y017955D01*
X017676Y018000D01*
X017708Y018043D01*
X017743Y018083D01*
X017780Y018120D01*
X017820Y018155D01*
X017863Y018187D01*
X017908Y018215D01*
X017955Y018240D01*
X018004Y018261D01*
X018054Y018278D01*
X018105Y018292D01*
X018157Y018302D01*
X018210Y018308D01*
X018263Y018310D01*
X018316Y018308D01*
X018369Y018302D01*
X018421Y018292D01*
X018472Y018278D01*
X018522Y018261D01*
X018571Y018240D01*
X018618Y018215D01*
X018663Y018187D01*
X018706Y018155D01*
X018746Y018120D01*
X018783Y018083D01*
X018818Y018043D01*
X018850Y018000D01*
X018878Y017955D01*
X018903Y017908D01*
X018924Y017859D01*
X018941Y017809D01*
X018955Y017758D01*
X018965Y017706D01*
X018971Y017653D01*
X018973Y017600D01*
X018971Y017547D01*
X018965Y017494D01*
X018955Y017442D01*
X018941Y017391D01*
X018924Y017341D01*
X018903Y017292D01*
X018878Y017245D01*
X018850Y017200D01*
X018818Y017157D01*
X018783Y017117D01*
X018746Y017080D01*
X018706Y017045D01*
X018663Y017013D01*
X018618Y016985D01*
X018571Y016960D01*
X018522Y016939D01*
X018472Y016922D01*
X018421Y016908D01*
X018369Y016898D01*
X018316Y016892D01*
X018263Y016890D01*
X018210Y016892D01*
X018157Y016898D01*
X018105Y016908D01*
X018054Y016922D01*
X018004Y016939D01*
X017955Y016960D01*
X017908Y016985D01*
X017863Y017013D01*
X017820Y017045D01*
X017780Y017080D01*
X017743Y017117D01*
X017708Y017157D01*
X017676Y017200D01*
X017648Y017245D01*
X017623Y017292D01*
X017602Y017341D01*
X017585Y017391D01*
X017571Y017442D01*
X017561Y017494D01*
X017555Y017547D01*
X017553Y017600D01*
D15*
X016863Y015800D02*
X016863Y019400D01*
X013613Y019400D01*
X013613Y015800D01*
X016863Y015800D01*
D16*
X012138Y016600D03*
X012138Y017600D03*
X012138Y018600D03*
D17*
X012813Y018600D03*
X012813Y017600D03*
X012813Y016600D03*
D18*
X014048Y017235D02*
X014048Y017340D01*
X014469Y017760D01*
X014469Y017866D01*
X014048Y017866D01*
X014693Y017760D02*
X014693Y017655D01*
X014798Y017550D01*
X015008Y017550D01*
X015113Y017445D01*
X015113Y017340D01*
X015008Y017235D01*
X014798Y017235D01*
X014693Y017340D01*
X014693Y017445D01*
X014798Y017550D01*
X015008Y017550D02*
X015113Y017655D01*
X015113Y017760D01*
X015008Y017866D01*
X014798Y017866D01*
X014693Y017760D01*
X015337Y017760D02*
X015337Y017340D01*
X015758Y017760D01*
X015758Y017340D01*
X015653Y017235D01*
X015442Y017235D01*
X015337Y017340D01*
X015337Y017760D02*
X015442Y017866D01*
X015653Y017866D01*
X015758Y017760D01*
X015982Y017866D02*
X015982Y017550D01*
X016192Y017655D01*
X016297Y017655D01*
X016402Y017550D01*
X016402Y017340D01*
X016297Y017235D01*
X016087Y017235D01*
X015982Y017340D01*
X015982Y017866D02*
X016402Y017866D01*
X016626Y017866D02*
X017047Y017866D01*
X016837Y017866D02*
X016837Y017235D01*
X018003Y006911D02*
X018108Y006911D01*
X018213Y006806D01*
X018213Y006596D01*
X018108Y006490D01*
X018003Y006490D01*
X017898Y006596D01*
X017898Y006806D01*
X018003Y006911D01*
X018213Y006806D02*
X018318Y006911D01*
X018423Y006911D01*
X018528Y006806D01*
X018528Y006596D01*
X018423Y006490D01*
X018318Y006490D01*
X018213Y006596D01*
X018108Y006266D02*
X018003Y006266D01*
X017898Y006161D01*
X017898Y005951D01*
X018003Y005846D01*
X018003Y005622D02*
X018108Y005622D01*
X018213Y005517D01*
X018318Y005622D01*
X018423Y005622D01*
X018528Y005517D01*
X018528Y005306D01*
X018423Y005201D01*
X018528Y004977D02*
X018108Y004977D01*
X017898Y004767D01*
X018108Y004557D01*
X018528Y004557D01*
X018423Y004333D02*
X018213Y004333D01*
X018213Y004122D01*
X018003Y003912D02*
X018423Y003912D01*
X018528Y004017D01*
X018528Y004228D01*
X018423Y004333D01*
X018213Y004557D02*
X018213Y004977D01*
X018003Y005201D02*
X017898Y005306D01*
X017898Y005517D01*
X018003Y005622D01*
X018213Y005517D02*
X018213Y005412D01*
X018528Y005846D02*
X018108Y006266D01*
X018528Y006266D02*
X018528Y005846D01*
X018003Y004333D02*
X017898Y004228D01*
X017898Y004017D01*
X018003Y003912D01*
X017898Y003688D02*
X017898Y003268D01*
X018528Y003268D01*
X018528Y003688D01*
X018213Y003478D02*
X018213Y003268D01*
X017898Y003044D02*
X018528Y003044D01*
X018108Y002833D02*
X017898Y003044D01*
X018108Y002833D02*
X017898Y002623D01*
X018528Y002623D01*
X018528Y002189D02*
X017898Y002189D01*
X017898Y001979D02*
X017898Y002399D01*
X018108Y001754D02*
X018528Y001754D01*
X018213Y001754D02*
X018213Y001334D01*
X018108Y001334D02*
X017898Y001544D01*
X018108Y001754D01*
X018108Y001334D02*
X018528Y001334D01*
D19*
X016077Y012415D02*
X016174Y012512D01*
X016174Y012705D01*
X015980Y012705D02*
X015980Y012512D01*
X016077Y012415D01*
X015879Y012463D02*
X015831Y012415D01*
X015734Y012415D01*
X015685Y012463D01*
X015879Y012657D01*
X015879Y012463D01*
X015685Y012463D02*
X015685Y012657D01*
X015734Y012705D01*
X015831Y012705D01*
X015879Y012657D01*
X015584Y012415D02*
X015391Y012415D01*
X015488Y012415D02*
X015488Y012705D01*
X015391Y012608D01*
X014995Y012705D02*
X014801Y012415D01*
X014406Y012705D02*
X014212Y012705D01*
X014212Y012415D01*
X014111Y012415D02*
X014111Y012608D01*
X014212Y012560D02*
X014309Y012560D01*
X014111Y012415D02*
X013966Y012415D01*
X013918Y012463D01*
X013918Y012608D01*
X013816Y012657D02*
X013623Y012463D01*
X013671Y012415D01*
X013768Y012415D01*
X013816Y012463D01*
X013816Y012657D01*
X013768Y012705D01*
X013671Y012705D01*
X013623Y012657D01*
X013623Y012463D01*
X013522Y012415D02*
X013328Y012415D01*
X013425Y012415D02*
X013425Y012705D01*
X013328Y012608D01*
X011768Y012512D02*
X011768Y012705D01*
X011768Y012512D02*
X011671Y012415D01*
X011575Y012512D01*
X011575Y012705D01*
X011474Y012705D02*
X011280Y012705D01*
X011280Y012560D01*
X011377Y012608D01*
X011425Y012608D01*
X011474Y012560D01*
X011474Y012463D01*
X011425Y012415D01*
X011328Y012415D01*
X011280Y012463D01*
X011179Y012415D02*
X010985Y012415D01*
X011179Y012608D01*
X011179Y012657D01*
X011131Y012705D01*
X011034Y012705D01*
X010985Y012657D01*
X010590Y012705D02*
X010396Y012415D01*
X010000Y012705D02*
X009807Y012705D01*
X009807Y012415D01*
X009706Y012415D02*
X009706Y012608D01*
X009807Y012560D02*
X009904Y012560D01*
X009706Y012415D02*
X009561Y012415D01*
X009512Y012463D01*
X009512Y012608D01*
X009411Y012657D02*
X009218Y012463D01*
X009266Y012415D01*
X009363Y012415D01*
X009411Y012463D01*
X009411Y012657D01*
X009363Y012705D01*
X009266Y012705D01*
X009218Y012657D01*
X009218Y012463D01*
X009116Y012463D02*
X009116Y012657D01*
X008923Y012463D01*
X008971Y012415D01*
X009068Y012415D01*
X009116Y012463D01*
X008923Y012463D02*
X008923Y012657D01*
X008971Y012705D01*
X009068Y012705D01*
X009116Y012657D01*
X008822Y012415D02*
X008628Y012415D01*
X008725Y012415D02*
X008725Y012705D01*
X008628Y012608D01*
X005727Y013445D02*
X005534Y013445D01*
X005630Y013445D02*
X005630Y013735D01*
X005534Y013638D01*
X005432Y013687D02*
X005384Y013735D01*
X005239Y013735D01*
X005239Y013445D01*
X005384Y013445D01*
X005432Y013493D01*
X005432Y013687D01*
D20*
X005113Y014100D02*
X004613Y014100D01*
X004613Y013600D01*
X004363Y013600D01*
X004613Y013600D02*
X004613Y013100D01*
X005113Y013100D01*
X005113Y014100D01*
X007113Y014100D01*
X007113Y013600D01*
X007363Y013600D01*
X007113Y013600D02*
X007113Y013100D01*
X005113Y013100D01*
X026983Y014590D02*
X026983Y014770D01*
X026983Y015410D02*
X026983Y015610D01*
X026983Y016590D02*
X026983Y016770D01*
X026983Y017410D02*
X026983Y017610D01*
X026983Y018590D02*
X026983Y018770D01*
X026983Y019410D02*
X026983Y019610D01*
M02*
