G75*
G70*
%OFA0B0*%
%FSLAX24Y24*%
%IPPOS*%
%LPD*%
%AMOC8*
5,1,8,0,0,1.08239X$1,22.5*
%
%ADD10C,0.0120*%
%ADD11C,0.0560*%
%ADD12R,0.0740X0.0740*%
%ADD13C,0.0740*%
%ADD14C,0.2000*%
%ADD15C,0.0650*%
%ADD16C,0.0680*%
%ADD17R,0.0650X0.0650*%
%ADD18C,0.1700*%
%ADD19C,0.0780*%
%ADD20C,0.0100*%
D10*
X028380Y004098D02*
X029260Y004098D01*
X029260Y004539D01*
X029114Y004685D01*
X028820Y004685D01*
X028673Y004539D01*
X028673Y004098D01*
X028673Y003778D02*
X028820Y003631D01*
X029407Y003631D01*
X029260Y003484D02*
X029260Y003778D01*
X029260Y003164D02*
X029260Y002870D01*
X029407Y003017D02*
X028820Y003017D01*
X028673Y003164D01*
X028673Y002537D02*
X029114Y002537D01*
X029260Y002390D01*
X029260Y002096D01*
X029114Y001950D01*
X029554Y001950D02*
X028673Y001950D01*
X030320Y004712D02*
X030173Y004859D01*
X030173Y005152D01*
X030320Y005299D01*
X030173Y005633D02*
X030760Y005633D01*
X030467Y005633D02*
X030760Y005926D01*
X030760Y006073D01*
X030320Y006400D02*
X030467Y006547D01*
X030467Y006987D01*
X030614Y006987D02*
X030760Y006840D01*
X030760Y006547D01*
X030320Y006400D02*
X030173Y006547D01*
X030173Y006987D01*
X030614Y006987D01*
X030760Y007321D02*
X030760Y007468D01*
X030173Y007468D01*
X030173Y007614D02*
X030173Y007321D01*
X029554Y006987D02*
X028673Y006400D01*
X028673Y005479D02*
X029554Y006066D01*
X030907Y005299D02*
X031054Y005152D01*
X031054Y004859D01*
X030907Y004712D01*
X030320Y004712D01*
X029260Y005019D02*
X029114Y005019D01*
X029114Y005166D01*
X029260Y005166D01*
X029260Y005019D01*
X028820Y005019D02*
X028673Y005019D01*
X028673Y005166D01*
X028820Y005166D01*
X028820Y005019D01*
X028673Y007321D02*
X028673Y007761D01*
X028820Y007908D01*
X029114Y007908D01*
X029260Y007761D01*
X029260Y007321D01*
X028380Y007321D01*
X028673Y008242D02*
X029260Y008242D01*
X028967Y008242D02*
X029260Y008535D01*
X029260Y008682D01*
X029114Y009009D02*
X028820Y009009D01*
X028673Y009156D01*
X028673Y009449D01*
X028967Y009596D02*
X028967Y009009D01*
X029114Y009009D02*
X029260Y009156D01*
X029260Y009449D01*
X029114Y009596D01*
X028967Y009596D01*
X029114Y009930D02*
X029114Y010223D01*
X029407Y010077D02*
X028673Y010077D01*
X029407Y010077D02*
X029554Y010223D01*
X030173Y010217D02*
X030173Y009776D01*
X031054Y009776D01*
X031054Y010217D01*
X030907Y010364D01*
X030760Y010364D01*
X030614Y010217D01*
X030614Y009776D01*
X030614Y010217D02*
X030467Y010364D01*
X030320Y010364D01*
X030173Y010217D01*
X030320Y010697D02*
X030614Y010697D01*
X030760Y010844D01*
X030760Y011137D01*
X030614Y011284D01*
X030467Y011284D01*
X030467Y010697D01*
X030320Y010697D02*
X030173Y010844D01*
X030173Y011137D01*
X030173Y011618D02*
X030760Y011618D01*
X030760Y012058D01*
X030614Y012205D01*
X030173Y012205D01*
X030173Y012539D02*
X030760Y012539D01*
X030760Y012979D01*
X030614Y013126D01*
X030173Y013126D01*
X030320Y013459D02*
X030614Y013459D01*
X030760Y013606D01*
X030760Y013900D01*
X030614Y014047D01*
X030467Y014047D01*
X030467Y013459D01*
X030320Y013459D02*
X030173Y013606D01*
X030173Y013900D01*
X029260Y013913D02*
X029260Y014207D01*
X029114Y014354D01*
X028673Y014354D01*
X028673Y013913D01*
X028820Y013766D01*
X028967Y013913D01*
X028967Y014354D01*
X028673Y014687D02*
X028673Y014981D01*
X028673Y014834D02*
X029554Y014834D01*
X029554Y014687D01*
X030173Y014674D02*
X030320Y014527D01*
X030907Y014527D01*
X030760Y014380D02*
X030760Y014674D01*
X030760Y014994D02*
X030760Y015288D01*
X030907Y015141D02*
X030320Y015141D01*
X030173Y015288D01*
X029260Y015908D02*
X029114Y015761D01*
X028820Y015761D01*
X028673Y015908D01*
X028673Y016202D01*
X028820Y016349D01*
X029114Y016349D01*
X029260Y016202D01*
X029260Y015908D01*
X028820Y015448D02*
X028673Y015448D01*
X028673Y015301D01*
X028820Y015301D01*
X028820Y015448D01*
X028673Y016682D02*
X029260Y016682D01*
X028967Y016682D02*
X029260Y016976D01*
X029260Y017123D01*
X029114Y017450D02*
X028820Y017450D01*
X028673Y017596D01*
X028673Y018037D01*
X028526Y018037D02*
X028380Y017890D01*
X028380Y017743D01*
X028526Y018037D02*
X029260Y018037D01*
X029260Y017596D01*
X029114Y017450D01*
X029260Y013446D02*
X029260Y013153D01*
X029407Y013299D02*
X028820Y013299D01*
X028673Y013446D01*
X028673Y012819D02*
X029114Y012819D01*
X029260Y012672D01*
X029260Y012232D01*
X028673Y012232D01*
X028820Y011898D02*
X029114Y011898D01*
X029260Y011751D01*
X029260Y011458D01*
X029114Y011311D01*
X028820Y011311D01*
X028673Y011458D01*
X028673Y011751D01*
X028820Y011898D01*
X029260Y010984D02*
X029260Y010837D01*
X028967Y010544D01*
X029260Y010544D02*
X028673Y010544D01*
X030026Y008522D02*
X030760Y008522D01*
X030760Y008082D01*
X030614Y007935D01*
X030320Y007935D01*
X030173Y008082D01*
X030173Y008522D01*
X030026Y008522D02*
X029880Y008375D01*
X029880Y008228D01*
X031054Y007468D02*
X031201Y007468D01*
D11*
X020143Y007100D02*
X019583Y007100D01*
X019583Y006100D02*
X020143Y006100D01*
X020143Y005100D02*
X019583Y005100D01*
X019583Y004100D02*
X020143Y004100D01*
X020143Y003100D02*
X019583Y003100D01*
X019583Y002100D02*
X020143Y002100D01*
X020143Y001100D02*
X019583Y001100D01*
X017143Y001100D02*
X016583Y001100D01*
X016583Y002100D02*
X017143Y002100D01*
X017143Y003100D02*
X016583Y003100D01*
X016583Y004100D02*
X017143Y004100D01*
X017143Y005100D02*
X016583Y005100D01*
X016583Y006100D02*
X017143Y006100D01*
X017143Y007100D02*
X016583Y007100D01*
X016583Y008100D02*
X017143Y008100D01*
X017143Y009100D02*
X016583Y009100D01*
X016583Y010100D02*
X017143Y010100D01*
X017143Y011100D02*
X016583Y011100D01*
X016583Y012100D02*
X017143Y012100D01*
X017143Y013100D02*
X016583Y013100D01*
X016583Y014100D02*
X017143Y014100D01*
X019583Y014100D02*
X020143Y014100D01*
X020143Y013100D02*
X019583Y013100D01*
X019583Y012100D02*
X020143Y012100D01*
X020143Y011100D02*
X019583Y011100D01*
X019583Y010100D02*
X020143Y010100D01*
X020143Y009100D02*
X019583Y009100D01*
X019583Y008100D02*
X020143Y008100D01*
X011643Y008100D02*
X011083Y008100D01*
X011083Y007100D02*
X011643Y007100D01*
X011643Y006100D02*
X011083Y006100D01*
X011083Y005100D02*
X011643Y005100D01*
X011643Y004100D02*
X011083Y004100D01*
X011083Y003100D02*
X011643Y003100D01*
X011643Y002100D02*
X011083Y002100D01*
X008643Y002100D02*
X008083Y002100D01*
X008083Y003100D02*
X008643Y003100D01*
X008643Y004100D02*
X008083Y004100D01*
X008083Y005100D02*
X008643Y005100D01*
X008643Y006100D02*
X008083Y006100D01*
X008083Y007100D02*
X008643Y007100D01*
X008643Y008100D02*
X008083Y008100D01*
X008083Y009100D02*
X008643Y009100D01*
X011083Y009100D02*
X011643Y009100D01*
D12*
X006922Y004419D03*
D13*
X005804Y004966D03*
X006922Y005509D03*
X005804Y006057D03*
X006922Y006600D03*
X005804Y007143D03*
X006922Y007691D03*
X005804Y008234D03*
X006922Y008781D03*
X010363Y016600D03*
X010363Y018600D03*
X020363Y019100D03*
X020363Y017100D03*
X020363Y015100D03*
X021363Y012600D03*
X022083Y011490D03*
X022083Y009710D03*
X021363Y008600D03*
X022083Y007490D03*
X024643Y007490D03*
X025363Y008600D03*
X024643Y009710D03*
X024643Y011490D03*
X025363Y012600D03*
X025863Y015100D03*
X026863Y015100D03*
X024363Y015100D03*
X024363Y017100D03*
X025863Y017100D03*
X026863Y017100D03*
X026863Y019100D03*
X025863Y019100D03*
X024363Y019100D03*
X024643Y005710D03*
X025363Y004600D03*
X024643Y003490D03*
X022083Y003490D03*
X021363Y004600D03*
X022083Y005710D03*
X022083Y001710D03*
X024643Y001710D03*
D14*
X006363Y001679D03*
X006363Y011521D03*
D15*
X009363Y014100D03*
X013863Y014100D03*
X013863Y009100D03*
X014863Y009100D03*
X012363Y008600D03*
X012363Y007600D03*
X014363Y007100D03*
X012363Y006100D03*
X012363Y005100D03*
X014363Y005100D03*
X012363Y003600D03*
X012363Y002600D03*
X013863Y002100D03*
X014863Y002100D03*
X014863Y003100D03*
X013863Y003100D03*
D16*
X012703Y016600D02*
X012023Y016600D01*
X012023Y017600D02*
X012703Y017600D01*
X012703Y018600D02*
X012023Y018600D01*
D17*
X010363Y014100D03*
X014863Y014100D03*
D18*
X008257Y017100D03*
X005895Y017100D03*
X007076Y015250D03*
D19*
X007863Y013600D03*
X003863Y013600D03*
D20*
X007076Y015250D02*
X007363Y015100D01*
X012863Y015100D01*
X013863Y014100D01*
X014363Y013600D01*
X015363Y013600D01*
X017863Y016100D01*
X026863Y016100D01*
X026863Y017100D01*
X026863Y019100D01*
X026863Y016100D02*
X026863Y015100D01*
X026863Y009600D01*
X024863Y009600D01*
X024643Y009710D01*
X021363Y008600D02*
X019363Y008600D01*
X016863Y011100D01*
X017863Y011600D02*
X011863Y011600D01*
X010363Y010100D01*
X010363Y007100D01*
X009363Y006100D01*
X008363Y006100D01*
X008363Y007100D02*
X009363Y007100D01*
X009863Y007600D01*
X009863Y010600D01*
X011363Y012100D01*
X016863Y012100D01*
X016863Y013100D02*
X017863Y012100D01*
X017863Y011600D01*
X018363Y012600D02*
X021363Y012600D01*
X018363Y012600D02*
X016863Y014100D01*
X014863Y014100D02*
X014863Y017100D01*
X016863Y019100D01*
X020363Y019100D01*
X012363Y017600D02*
X010363Y017600D01*
X008363Y015600D01*
X007363Y015600D01*
X007076Y015250D01*
X007363Y015100D02*
X008363Y014100D01*
X009363Y014100D01*
X013863Y009100D02*
X015863Y007100D01*
X016863Y007100D01*
X016363Y006600D02*
X014863Y006600D01*
X014363Y007100D01*
X012363Y007600D02*
X011863Y007600D01*
X011363Y007100D01*
X014363Y005100D02*
X014863Y005100D01*
X014863Y003100D01*
X014863Y002100D02*
X014363Y001600D01*
X008863Y001600D01*
X008363Y002100D01*
X011363Y002100D02*
X011863Y002600D01*
X012363Y002600D01*
X012363Y003600D02*
X011863Y003600D01*
X011363Y004100D01*
X014863Y005100D02*
X016863Y005100D01*
X016863Y006100D02*
X016363Y006600D01*
X016863Y008100D02*
X019363Y005600D01*
X021363Y005600D01*
X022363Y004600D01*
X025363Y004600D01*
X024643Y003490D02*
X024363Y003600D01*
X022363Y003600D01*
X022083Y003490D01*
X019863Y006100D02*
X017863Y008100D01*
X016863Y008100D01*
X022083Y007490D02*
X022363Y007600D01*
X024363Y007600D01*
X024643Y007490D01*
M02*
