%
M48
M72
T01C0.0276
T02C0.0315
T03C0.0320
T04C0.0354
T05C0.0394
T06C0.0400
T07C0.0440
T08C0.1180
T09C0.1300
%
T01
X12363Y2600
X12363Y3600
X13863Y3100
X14863Y3100
X14863Y2100
X13863Y2100
X14363Y5100
X12363Y5100
X12363Y6100
X14363Y7100
X12363Y7600
X12363Y8600
X13863Y9100
X14863Y9100
X14863Y14100
X13863Y14100
X10363Y14100
X9363Y14100
T02
X10363Y16600
X10363Y18600
T03
X16863Y14100
X16863Y13100
X16863Y12100
X16863Y11100
X16863Y10100
X16863Y9100
X16863Y8100
X16863Y7100
X16863Y6100
X16863Y5100
X16863Y4100
X16863Y3100
X16863Y2100
X16863Y1100
X19863Y1100
X19863Y2100
X19863Y3100
X19863Y4100
X19863Y5100
X19863Y6100
X19863Y7100
X19863Y8100
X19863Y9100
X19863Y10100
X19863Y11100
X19863Y12100
X19863Y13100
X19863Y14100
X25863Y15100
X26863Y15100
X26863Y17100
X25863Y17100
X25863Y19100
X26863Y19100
X11363Y9100
X11363Y8100
X11363Y7100
X11363Y6100
X11363Y5100
X11363Y4100
X11363Y3100
X11363Y2100
X8363Y2100
X8363Y3100
X8363Y4100
X8363Y5100
X8363Y6100
X8363Y7100
X8363Y8100
X8363Y9100
T04
X20363Y15100
X20363Y17100
X20363Y19100
X24363Y19100
X24363Y17100
X24363Y15100
X25363Y12600
X21363Y12600
X21363Y8600
X25363Y8600
X25363Y4600
X21363Y4600
T05
X7863Y13600
X3863Y13600
T06
X6922Y8781
X5804Y8234
X6922Y7691
X5804Y7143
X6922Y6600
X5804Y6057
X6922Y5509
X5804Y4966
X6922Y4419
X22083Y3490
X24643Y3490
X24643Y1710
X22083Y1710
X22083Y5710
X24643Y5710
X24643Y7490
X22083Y7490
X22083Y9710
X22083Y11490
X24643Y11490
X24643Y9710
T07
X12363Y16600
X12363Y17600
X12363Y18600
T08
X8257Y17100
X5895Y17100
X7076Y15250
T09
X6363Y1679
X6363Y11521
X18263Y17600
M30
